G04 EAGLE Gerber RS-274X export*
G75*
%MOMM*%
%FSLAX34Y34*%
%LPD*%
%INTop Copper*%
%IPNEG*%
%AMOC8*
5,1,8,0,0,1.08239X$1,22.5*%
G01*
%ADD10C,0.130000*%
%ADD11C,0.152400*%
%ADD12C,1.524000*%
%ADD13C,2.000000*%
%ADD14R,2.000000X2.000000*%
%ADD15C,3.516000*%
%ADD16C,1.930400*%
%ADD17C,1.981200*%
%ADD18P,1.732040X8X112.500000*%
%ADD19C,1.600200*%
%ADD20C,1.016000*%
%ADD21C,1.270000*%


D10*
X50800Y685546D02*
X50800Y846778D01*
X650748Y846778D02*
X650748Y685546D01*
X650098Y827278D02*
X51450Y827278D01*
X76800Y830470D01*
X76800Y824086D01*
X51450Y827278D01*
X76800Y828578D01*
X76800Y825978D02*
X51450Y827278D01*
X76800Y829878D01*
X76800Y824678D02*
X51450Y827278D01*
X624748Y830470D02*
X650098Y827278D01*
X624748Y830470D02*
X624748Y824086D01*
X650098Y827278D01*
X624748Y828578D01*
X624748Y825978D02*
X650098Y827278D01*
X624748Y829878D01*
X624748Y824678D02*
X650098Y827278D01*
D11*
X325045Y833785D02*
X319626Y833785D01*
X325045Y833785D02*
X325163Y833787D01*
X325281Y833793D01*
X325399Y833802D01*
X325516Y833816D01*
X325633Y833833D01*
X325750Y833854D01*
X325865Y833879D01*
X325980Y833908D01*
X326094Y833941D01*
X326206Y833977D01*
X326317Y834017D01*
X326427Y834060D01*
X326536Y834107D01*
X326643Y834157D01*
X326748Y834212D01*
X326851Y834269D01*
X326952Y834330D01*
X327052Y834394D01*
X327149Y834461D01*
X327244Y834531D01*
X327336Y834605D01*
X327427Y834681D01*
X327514Y834761D01*
X327599Y834843D01*
X327681Y834928D01*
X327761Y835015D01*
X327837Y835106D01*
X327911Y835198D01*
X327981Y835293D01*
X328048Y835390D01*
X328112Y835490D01*
X328173Y835591D01*
X328230Y835694D01*
X328285Y835799D01*
X328335Y835906D01*
X328382Y836015D01*
X328425Y836125D01*
X328465Y836236D01*
X328501Y836348D01*
X328534Y836462D01*
X328563Y836577D01*
X328588Y836692D01*
X328609Y836809D01*
X328626Y836926D01*
X328640Y837043D01*
X328649Y837161D01*
X328655Y837279D01*
X328657Y837397D01*
X328657Y839204D01*
X328655Y839322D01*
X328649Y839440D01*
X328640Y839558D01*
X328626Y839675D01*
X328609Y839792D01*
X328588Y839909D01*
X328563Y840024D01*
X328534Y840139D01*
X328501Y840253D01*
X328465Y840365D01*
X328425Y840476D01*
X328382Y840586D01*
X328335Y840695D01*
X328285Y840802D01*
X328230Y840907D01*
X328173Y841010D01*
X328112Y841111D01*
X328048Y841211D01*
X327981Y841308D01*
X327911Y841403D01*
X327837Y841495D01*
X327761Y841586D01*
X327681Y841673D01*
X327599Y841758D01*
X327514Y841840D01*
X327427Y841920D01*
X327336Y841996D01*
X327244Y842070D01*
X327149Y842140D01*
X327052Y842207D01*
X326952Y842271D01*
X326851Y842332D01*
X326748Y842389D01*
X326643Y842444D01*
X326536Y842494D01*
X326427Y842541D01*
X326317Y842584D01*
X326206Y842624D01*
X326094Y842660D01*
X325980Y842693D01*
X325865Y842722D01*
X325750Y842747D01*
X325633Y842768D01*
X325516Y842785D01*
X325399Y842799D01*
X325281Y842808D01*
X325163Y842814D01*
X325045Y842816D01*
X319626Y842816D01*
X319626Y850041D01*
X328657Y850041D01*
X338870Y841010D02*
X344288Y841010D01*
X338870Y841010D02*
X338752Y841012D01*
X338634Y841018D01*
X338516Y841027D01*
X338399Y841041D01*
X338282Y841058D01*
X338165Y841079D01*
X338050Y841104D01*
X337935Y841133D01*
X337821Y841166D01*
X337709Y841202D01*
X337598Y841242D01*
X337488Y841285D01*
X337379Y841332D01*
X337272Y841382D01*
X337167Y841437D01*
X337064Y841494D01*
X336963Y841555D01*
X336863Y841619D01*
X336766Y841686D01*
X336671Y841756D01*
X336579Y841830D01*
X336488Y841906D01*
X336401Y841986D01*
X336316Y842068D01*
X336234Y842153D01*
X336154Y842240D01*
X336078Y842331D01*
X336004Y842423D01*
X335934Y842518D01*
X335867Y842615D01*
X335803Y842715D01*
X335742Y842816D01*
X335685Y842919D01*
X335630Y843024D01*
X335580Y843131D01*
X335533Y843240D01*
X335490Y843350D01*
X335450Y843461D01*
X335414Y843573D01*
X335381Y843687D01*
X335352Y843802D01*
X335327Y843917D01*
X335306Y844034D01*
X335289Y844151D01*
X335275Y844268D01*
X335266Y844386D01*
X335260Y844504D01*
X335258Y844622D01*
X335257Y844622D02*
X335257Y845525D01*
X335259Y845658D01*
X335265Y845790D01*
X335275Y845922D01*
X335288Y846054D01*
X335306Y846186D01*
X335327Y846316D01*
X335352Y846447D01*
X335381Y846576D01*
X335414Y846704D01*
X335450Y846832D01*
X335490Y846958D01*
X335534Y847083D01*
X335582Y847207D01*
X335633Y847329D01*
X335688Y847450D01*
X335746Y847569D01*
X335808Y847687D01*
X335873Y847802D01*
X335942Y847916D01*
X336013Y848027D01*
X336089Y848136D01*
X336167Y848243D01*
X336248Y848348D01*
X336333Y848450D01*
X336420Y848550D01*
X336510Y848647D01*
X336603Y848742D01*
X336699Y848833D01*
X336797Y848922D01*
X336898Y849008D01*
X337002Y849091D01*
X337108Y849171D01*
X337216Y849247D01*
X337326Y849321D01*
X337439Y849391D01*
X337553Y849458D01*
X337670Y849521D01*
X337788Y849581D01*
X337908Y849638D01*
X338030Y849691D01*
X338153Y849740D01*
X338277Y849786D01*
X338403Y849828D01*
X338530Y849866D01*
X338658Y849901D01*
X338787Y849932D01*
X338916Y849959D01*
X339047Y849982D01*
X339178Y850002D01*
X339310Y850017D01*
X339442Y850029D01*
X339574Y850037D01*
X339707Y850041D01*
X339839Y850041D01*
X339972Y850037D01*
X340104Y850029D01*
X340236Y850017D01*
X340368Y850002D01*
X340499Y849982D01*
X340630Y849959D01*
X340759Y849932D01*
X340888Y849901D01*
X341016Y849866D01*
X341143Y849828D01*
X341269Y849786D01*
X341393Y849740D01*
X341516Y849691D01*
X341638Y849638D01*
X341758Y849581D01*
X341876Y849521D01*
X341993Y849458D01*
X342107Y849391D01*
X342220Y849321D01*
X342330Y849247D01*
X342438Y849171D01*
X342544Y849091D01*
X342648Y849008D01*
X342749Y848922D01*
X342847Y848833D01*
X342943Y848742D01*
X343036Y848647D01*
X343126Y848550D01*
X343213Y848450D01*
X343298Y848348D01*
X343379Y848243D01*
X343457Y848136D01*
X343533Y848027D01*
X343604Y847916D01*
X343673Y847802D01*
X343738Y847687D01*
X343800Y847569D01*
X343858Y847450D01*
X343913Y847329D01*
X343964Y847207D01*
X344012Y847083D01*
X344056Y846958D01*
X344096Y846832D01*
X344132Y846704D01*
X344165Y846576D01*
X344194Y846447D01*
X344219Y846316D01*
X344240Y846186D01*
X344258Y846054D01*
X344271Y845922D01*
X344281Y845790D01*
X344287Y845658D01*
X344289Y845525D01*
X344288Y845525D02*
X344288Y841010D01*
X344286Y840835D01*
X344280Y840661D01*
X344269Y840487D01*
X344254Y840313D01*
X344235Y840139D01*
X344212Y839966D01*
X344185Y839794D01*
X344153Y839622D01*
X344118Y839451D01*
X344078Y839281D01*
X344034Y839112D01*
X343986Y838944D01*
X343934Y838777D01*
X343878Y838612D01*
X343818Y838448D01*
X343755Y838285D01*
X343687Y838125D01*
X343615Y837965D01*
X343540Y837808D01*
X343460Y837652D01*
X343377Y837499D01*
X343291Y837347D01*
X343200Y837198D01*
X343106Y837051D01*
X343009Y836906D01*
X342908Y836763D01*
X342804Y836623D01*
X342696Y836486D01*
X342585Y836351D01*
X342471Y836219D01*
X342354Y836090D01*
X342233Y835963D01*
X342110Y835840D01*
X341983Y835719D01*
X341854Y835602D01*
X341722Y835488D01*
X341587Y835377D01*
X341450Y835269D01*
X341310Y835165D01*
X341167Y835064D01*
X341022Y834967D01*
X340875Y834873D01*
X340726Y834782D01*
X340574Y834696D01*
X340421Y834613D01*
X340265Y834533D01*
X340108Y834458D01*
X339948Y834386D01*
X339788Y834318D01*
X339625Y834255D01*
X339461Y834195D01*
X339296Y834139D01*
X339129Y834087D01*
X338961Y834039D01*
X338792Y833995D01*
X338622Y833955D01*
X338451Y833920D01*
X338279Y833888D01*
X338107Y833861D01*
X337934Y833838D01*
X337760Y833819D01*
X337586Y833804D01*
X337412Y833793D01*
X337238Y833787D01*
X337063Y833785D01*
X350263Y833785D02*
X350263Y834688D01*
X351166Y834688D01*
X351166Y833785D01*
X350263Y833785D01*
X360753Y841010D02*
X366172Y841010D01*
X360753Y841010D02*
X360635Y841012D01*
X360517Y841018D01*
X360399Y841027D01*
X360282Y841041D01*
X360165Y841058D01*
X360048Y841079D01*
X359933Y841104D01*
X359818Y841133D01*
X359704Y841166D01*
X359592Y841202D01*
X359481Y841242D01*
X359371Y841285D01*
X359262Y841332D01*
X359155Y841382D01*
X359050Y841437D01*
X358947Y841494D01*
X358846Y841555D01*
X358746Y841619D01*
X358649Y841686D01*
X358554Y841756D01*
X358462Y841830D01*
X358371Y841906D01*
X358284Y841986D01*
X358199Y842068D01*
X358117Y842153D01*
X358037Y842240D01*
X357961Y842331D01*
X357887Y842423D01*
X357817Y842518D01*
X357750Y842615D01*
X357686Y842715D01*
X357625Y842816D01*
X357568Y842919D01*
X357513Y843024D01*
X357463Y843131D01*
X357416Y843240D01*
X357373Y843350D01*
X357333Y843461D01*
X357297Y843573D01*
X357264Y843687D01*
X357235Y843802D01*
X357210Y843917D01*
X357189Y844034D01*
X357172Y844151D01*
X357158Y844268D01*
X357149Y844386D01*
X357143Y844504D01*
X357141Y844622D01*
X357141Y845525D01*
X357140Y845525D02*
X357142Y845658D01*
X357148Y845790D01*
X357158Y845922D01*
X357171Y846054D01*
X357189Y846186D01*
X357210Y846316D01*
X357235Y846447D01*
X357264Y846576D01*
X357297Y846704D01*
X357333Y846832D01*
X357373Y846958D01*
X357417Y847083D01*
X357465Y847207D01*
X357516Y847329D01*
X357571Y847450D01*
X357629Y847569D01*
X357691Y847687D01*
X357756Y847802D01*
X357825Y847916D01*
X357896Y848027D01*
X357972Y848136D01*
X358050Y848243D01*
X358131Y848348D01*
X358216Y848450D01*
X358303Y848550D01*
X358393Y848647D01*
X358486Y848742D01*
X358582Y848833D01*
X358680Y848922D01*
X358781Y849008D01*
X358885Y849091D01*
X358991Y849171D01*
X359099Y849247D01*
X359209Y849321D01*
X359322Y849391D01*
X359436Y849458D01*
X359553Y849521D01*
X359671Y849581D01*
X359791Y849638D01*
X359913Y849691D01*
X360036Y849740D01*
X360160Y849786D01*
X360286Y849828D01*
X360413Y849866D01*
X360541Y849901D01*
X360670Y849932D01*
X360799Y849959D01*
X360930Y849982D01*
X361061Y850002D01*
X361193Y850017D01*
X361325Y850029D01*
X361457Y850037D01*
X361590Y850041D01*
X361722Y850041D01*
X361855Y850037D01*
X361987Y850029D01*
X362119Y850017D01*
X362251Y850002D01*
X362382Y849982D01*
X362513Y849959D01*
X362642Y849932D01*
X362771Y849901D01*
X362899Y849866D01*
X363026Y849828D01*
X363152Y849786D01*
X363276Y849740D01*
X363399Y849691D01*
X363521Y849638D01*
X363641Y849581D01*
X363759Y849521D01*
X363876Y849458D01*
X363990Y849391D01*
X364103Y849321D01*
X364213Y849247D01*
X364321Y849171D01*
X364427Y849091D01*
X364531Y849008D01*
X364632Y848922D01*
X364730Y848833D01*
X364826Y848742D01*
X364919Y848647D01*
X365009Y848550D01*
X365096Y848450D01*
X365181Y848348D01*
X365262Y848243D01*
X365340Y848136D01*
X365416Y848027D01*
X365487Y847916D01*
X365556Y847802D01*
X365621Y847687D01*
X365683Y847569D01*
X365741Y847450D01*
X365796Y847329D01*
X365847Y847207D01*
X365895Y847083D01*
X365939Y846958D01*
X365979Y846832D01*
X366015Y846704D01*
X366048Y846576D01*
X366077Y846447D01*
X366102Y846316D01*
X366123Y846186D01*
X366141Y846054D01*
X366154Y845922D01*
X366164Y845790D01*
X366170Y845658D01*
X366172Y845525D01*
X366172Y841010D01*
X366170Y840835D01*
X366164Y840661D01*
X366153Y840487D01*
X366138Y840313D01*
X366119Y840139D01*
X366096Y839966D01*
X366069Y839794D01*
X366037Y839622D01*
X366002Y839451D01*
X365962Y839281D01*
X365918Y839112D01*
X365870Y838944D01*
X365818Y838777D01*
X365762Y838612D01*
X365702Y838448D01*
X365639Y838285D01*
X365571Y838125D01*
X365499Y837965D01*
X365424Y837808D01*
X365344Y837652D01*
X365261Y837499D01*
X365175Y837347D01*
X365084Y837198D01*
X364990Y837051D01*
X364893Y836906D01*
X364792Y836763D01*
X364688Y836623D01*
X364580Y836486D01*
X364469Y836351D01*
X364355Y836219D01*
X364238Y836090D01*
X364117Y835963D01*
X363994Y835840D01*
X363867Y835719D01*
X363738Y835602D01*
X363606Y835488D01*
X363471Y835377D01*
X363334Y835269D01*
X363194Y835165D01*
X363051Y835064D01*
X362906Y834967D01*
X362759Y834873D01*
X362610Y834782D01*
X362458Y834696D01*
X362305Y834613D01*
X362149Y834533D01*
X361992Y834458D01*
X361832Y834386D01*
X361672Y834318D01*
X361509Y834255D01*
X361345Y834195D01*
X361180Y834139D01*
X361013Y834087D01*
X360845Y834039D01*
X360676Y833995D01*
X360506Y833955D01*
X360335Y833920D01*
X360163Y833888D01*
X359991Y833861D01*
X359818Y833838D01*
X359644Y833819D01*
X359470Y833804D01*
X359296Y833793D01*
X359122Y833787D01*
X358947Y833785D01*
X376385Y841010D02*
X381803Y841010D01*
X376385Y841010D02*
X376267Y841012D01*
X376149Y841018D01*
X376031Y841027D01*
X375914Y841041D01*
X375797Y841058D01*
X375680Y841079D01*
X375565Y841104D01*
X375450Y841133D01*
X375336Y841166D01*
X375224Y841202D01*
X375113Y841242D01*
X375003Y841285D01*
X374894Y841332D01*
X374787Y841382D01*
X374682Y841437D01*
X374579Y841494D01*
X374478Y841555D01*
X374378Y841619D01*
X374281Y841686D01*
X374186Y841756D01*
X374094Y841830D01*
X374003Y841906D01*
X373916Y841986D01*
X373831Y842068D01*
X373749Y842153D01*
X373669Y842240D01*
X373593Y842331D01*
X373519Y842423D01*
X373449Y842518D01*
X373382Y842615D01*
X373318Y842715D01*
X373257Y842816D01*
X373200Y842919D01*
X373145Y843024D01*
X373095Y843131D01*
X373048Y843240D01*
X373005Y843350D01*
X372965Y843461D01*
X372929Y843573D01*
X372896Y843687D01*
X372867Y843802D01*
X372842Y843917D01*
X372821Y844034D01*
X372804Y844151D01*
X372790Y844268D01*
X372781Y844386D01*
X372775Y844504D01*
X372773Y844622D01*
X372772Y844622D02*
X372772Y845525D01*
X372774Y845658D01*
X372780Y845790D01*
X372790Y845922D01*
X372803Y846054D01*
X372821Y846186D01*
X372842Y846316D01*
X372867Y846447D01*
X372896Y846576D01*
X372929Y846704D01*
X372965Y846832D01*
X373005Y846958D01*
X373049Y847083D01*
X373097Y847207D01*
X373148Y847329D01*
X373203Y847450D01*
X373261Y847569D01*
X373323Y847687D01*
X373388Y847802D01*
X373457Y847916D01*
X373528Y848027D01*
X373604Y848136D01*
X373682Y848243D01*
X373763Y848348D01*
X373848Y848450D01*
X373935Y848550D01*
X374025Y848647D01*
X374118Y848742D01*
X374214Y848833D01*
X374312Y848922D01*
X374413Y849008D01*
X374517Y849091D01*
X374623Y849171D01*
X374731Y849247D01*
X374841Y849321D01*
X374954Y849391D01*
X375068Y849458D01*
X375185Y849521D01*
X375303Y849581D01*
X375423Y849638D01*
X375545Y849691D01*
X375668Y849740D01*
X375792Y849786D01*
X375918Y849828D01*
X376045Y849866D01*
X376173Y849901D01*
X376302Y849932D01*
X376431Y849959D01*
X376562Y849982D01*
X376693Y850002D01*
X376825Y850017D01*
X376957Y850029D01*
X377089Y850037D01*
X377222Y850041D01*
X377354Y850041D01*
X377487Y850037D01*
X377619Y850029D01*
X377751Y850017D01*
X377883Y850002D01*
X378014Y849982D01*
X378145Y849959D01*
X378274Y849932D01*
X378403Y849901D01*
X378531Y849866D01*
X378658Y849828D01*
X378784Y849786D01*
X378908Y849740D01*
X379031Y849691D01*
X379153Y849638D01*
X379273Y849581D01*
X379391Y849521D01*
X379508Y849458D01*
X379622Y849391D01*
X379735Y849321D01*
X379845Y849247D01*
X379953Y849171D01*
X380059Y849091D01*
X380163Y849008D01*
X380264Y848922D01*
X380362Y848833D01*
X380458Y848742D01*
X380551Y848647D01*
X380641Y848550D01*
X380728Y848450D01*
X380813Y848348D01*
X380894Y848243D01*
X380972Y848136D01*
X381048Y848027D01*
X381119Y847916D01*
X381188Y847802D01*
X381253Y847687D01*
X381315Y847569D01*
X381373Y847450D01*
X381428Y847329D01*
X381479Y847207D01*
X381527Y847083D01*
X381571Y846958D01*
X381611Y846832D01*
X381647Y846704D01*
X381680Y846576D01*
X381709Y846447D01*
X381734Y846316D01*
X381755Y846186D01*
X381773Y846054D01*
X381786Y845922D01*
X381796Y845790D01*
X381802Y845658D01*
X381804Y845525D01*
X381803Y845525D02*
X381803Y841010D01*
X381801Y840835D01*
X381795Y840661D01*
X381784Y840487D01*
X381769Y840313D01*
X381750Y840139D01*
X381727Y839966D01*
X381700Y839794D01*
X381668Y839622D01*
X381633Y839451D01*
X381593Y839281D01*
X381549Y839112D01*
X381501Y838944D01*
X381449Y838777D01*
X381393Y838612D01*
X381333Y838448D01*
X381270Y838285D01*
X381202Y838125D01*
X381130Y837965D01*
X381055Y837808D01*
X380975Y837652D01*
X380892Y837499D01*
X380806Y837347D01*
X380715Y837198D01*
X380621Y837051D01*
X380524Y836906D01*
X380423Y836763D01*
X380319Y836623D01*
X380211Y836486D01*
X380100Y836351D01*
X379986Y836219D01*
X379869Y836090D01*
X379748Y835963D01*
X379625Y835840D01*
X379498Y835719D01*
X379369Y835602D01*
X379237Y835488D01*
X379102Y835377D01*
X378965Y835269D01*
X378825Y835165D01*
X378682Y835064D01*
X378537Y834967D01*
X378390Y834873D01*
X378241Y834782D01*
X378089Y834696D01*
X377936Y834613D01*
X377780Y834533D01*
X377623Y834458D01*
X377463Y834386D01*
X377303Y834318D01*
X377140Y834255D01*
X376976Y834195D01*
X376811Y834139D01*
X376644Y834087D01*
X376476Y834039D01*
X376307Y833995D01*
X376137Y833955D01*
X375966Y833920D01*
X375794Y833888D01*
X375622Y833861D01*
X375449Y833838D01*
X375275Y833819D01*
X375101Y833804D01*
X374927Y833793D01*
X374753Y833787D01*
X374578Y833785D01*
D10*
X645160Y755650D02*
X749242Y755650D01*
X749242Y155702D02*
X645160Y155702D01*
X729742Y156352D02*
X729742Y755000D01*
X726550Y729650D01*
X732934Y729650D01*
X729742Y755000D01*
X728442Y729650D01*
X731042Y729650D02*
X729742Y755000D01*
X727142Y729650D01*
X732342Y729650D02*
X729742Y755000D01*
X726550Y181702D02*
X729742Y156352D01*
X726550Y181702D02*
X732934Y181702D01*
X729742Y156352D01*
X728442Y181702D01*
X731042Y181702D02*
X729742Y156352D01*
X727142Y181702D01*
X732342Y181702D02*
X729742Y156352D01*
D11*
X723235Y424528D02*
X723235Y429947D01*
X723233Y430065D01*
X723227Y430183D01*
X723218Y430301D01*
X723204Y430418D01*
X723187Y430535D01*
X723166Y430652D01*
X723141Y430767D01*
X723112Y430882D01*
X723079Y430996D01*
X723043Y431108D01*
X723003Y431219D01*
X722960Y431329D01*
X722913Y431438D01*
X722863Y431545D01*
X722808Y431650D01*
X722751Y431753D01*
X722690Y431854D01*
X722626Y431954D01*
X722559Y432051D01*
X722489Y432146D01*
X722415Y432238D01*
X722339Y432329D01*
X722259Y432416D01*
X722177Y432501D01*
X722092Y432583D01*
X722005Y432663D01*
X721914Y432739D01*
X721822Y432813D01*
X721727Y432883D01*
X721630Y432950D01*
X721530Y433014D01*
X721429Y433075D01*
X721326Y433132D01*
X721221Y433187D01*
X721114Y433237D01*
X721005Y433284D01*
X720895Y433327D01*
X720784Y433367D01*
X720672Y433403D01*
X720558Y433436D01*
X720443Y433465D01*
X720328Y433490D01*
X720211Y433511D01*
X720094Y433528D01*
X719977Y433542D01*
X719859Y433551D01*
X719741Y433557D01*
X719623Y433559D01*
X717816Y433559D01*
X717698Y433557D01*
X717580Y433551D01*
X717462Y433542D01*
X717345Y433528D01*
X717228Y433511D01*
X717111Y433490D01*
X716996Y433465D01*
X716881Y433436D01*
X716767Y433403D01*
X716655Y433367D01*
X716544Y433327D01*
X716434Y433284D01*
X716325Y433237D01*
X716218Y433187D01*
X716113Y433132D01*
X716010Y433075D01*
X715909Y433014D01*
X715809Y432950D01*
X715712Y432883D01*
X715617Y432813D01*
X715525Y432739D01*
X715434Y432663D01*
X715347Y432583D01*
X715262Y432501D01*
X715180Y432416D01*
X715100Y432329D01*
X715024Y432238D01*
X714950Y432146D01*
X714880Y432051D01*
X714813Y431954D01*
X714749Y431854D01*
X714688Y431753D01*
X714631Y431650D01*
X714576Y431545D01*
X714526Y431438D01*
X714479Y431329D01*
X714436Y431219D01*
X714396Y431108D01*
X714360Y430996D01*
X714327Y430882D01*
X714298Y430767D01*
X714273Y430652D01*
X714252Y430535D01*
X714235Y430418D01*
X714221Y430301D01*
X714212Y430183D01*
X714206Y430065D01*
X714204Y429947D01*
X714204Y424528D01*
X706979Y424528D01*
X706979Y433559D01*
X716010Y443772D02*
X716010Y449190D01*
X716010Y443772D02*
X716008Y443654D01*
X716002Y443536D01*
X715993Y443418D01*
X715979Y443301D01*
X715962Y443184D01*
X715941Y443067D01*
X715916Y442952D01*
X715887Y442837D01*
X715854Y442723D01*
X715818Y442611D01*
X715778Y442500D01*
X715735Y442390D01*
X715688Y442281D01*
X715638Y442174D01*
X715583Y442069D01*
X715526Y441966D01*
X715465Y441865D01*
X715401Y441765D01*
X715334Y441668D01*
X715264Y441573D01*
X715190Y441481D01*
X715114Y441390D01*
X715034Y441303D01*
X714952Y441218D01*
X714867Y441136D01*
X714780Y441056D01*
X714689Y440980D01*
X714597Y440906D01*
X714502Y440836D01*
X714405Y440769D01*
X714305Y440705D01*
X714204Y440644D01*
X714101Y440587D01*
X713996Y440532D01*
X713889Y440482D01*
X713780Y440435D01*
X713670Y440392D01*
X713559Y440352D01*
X713447Y440316D01*
X713333Y440283D01*
X713218Y440254D01*
X713103Y440229D01*
X712986Y440208D01*
X712869Y440191D01*
X712752Y440177D01*
X712634Y440168D01*
X712516Y440162D01*
X712398Y440160D01*
X712398Y440159D02*
X711495Y440159D01*
X711362Y440161D01*
X711230Y440167D01*
X711098Y440177D01*
X710966Y440190D01*
X710834Y440208D01*
X710704Y440229D01*
X710573Y440254D01*
X710444Y440283D01*
X710316Y440316D01*
X710188Y440352D01*
X710062Y440392D01*
X709937Y440436D01*
X709813Y440484D01*
X709691Y440535D01*
X709570Y440590D01*
X709451Y440648D01*
X709333Y440710D01*
X709218Y440775D01*
X709104Y440844D01*
X708993Y440915D01*
X708884Y440991D01*
X708777Y441069D01*
X708672Y441150D01*
X708570Y441235D01*
X708470Y441322D01*
X708373Y441412D01*
X708278Y441505D01*
X708187Y441601D01*
X708098Y441699D01*
X708012Y441800D01*
X707929Y441904D01*
X707849Y442010D01*
X707773Y442118D01*
X707699Y442228D01*
X707629Y442341D01*
X707562Y442455D01*
X707499Y442572D01*
X707439Y442690D01*
X707382Y442810D01*
X707329Y442932D01*
X707280Y443055D01*
X707234Y443179D01*
X707192Y443305D01*
X707154Y443432D01*
X707119Y443560D01*
X707088Y443689D01*
X707061Y443818D01*
X707038Y443949D01*
X707018Y444080D01*
X707003Y444212D01*
X706991Y444344D01*
X706983Y444476D01*
X706979Y444609D01*
X706979Y444741D01*
X706983Y444874D01*
X706991Y445006D01*
X707003Y445138D01*
X707018Y445270D01*
X707038Y445401D01*
X707061Y445532D01*
X707088Y445661D01*
X707119Y445790D01*
X707154Y445918D01*
X707192Y446045D01*
X707234Y446171D01*
X707280Y446295D01*
X707329Y446418D01*
X707382Y446540D01*
X707439Y446660D01*
X707499Y446778D01*
X707562Y446895D01*
X707629Y447009D01*
X707699Y447122D01*
X707773Y447232D01*
X707849Y447340D01*
X707929Y447446D01*
X708012Y447550D01*
X708098Y447651D01*
X708187Y447749D01*
X708278Y447845D01*
X708373Y447938D01*
X708470Y448028D01*
X708570Y448115D01*
X708672Y448200D01*
X708777Y448281D01*
X708884Y448359D01*
X708993Y448435D01*
X709104Y448506D01*
X709218Y448575D01*
X709333Y448640D01*
X709451Y448702D01*
X709570Y448760D01*
X709691Y448815D01*
X709813Y448866D01*
X709937Y448914D01*
X710062Y448958D01*
X710188Y448998D01*
X710316Y449034D01*
X710444Y449067D01*
X710573Y449096D01*
X710704Y449121D01*
X710834Y449142D01*
X710966Y449160D01*
X711098Y449173D01*
X711230Y449183D01*
X711362Y449189D01*
X711495Y449191D01*
X711495Y449190D02*
X716010Y449190D01*
X716185Y449188D01*
X716359Y449182D01*
X716533Y449171D01*
X716707Y449156D01*
X716881Y449137D01*
X717054Y449114D01*
X717226Y449087D01*
X717398Y449055D01*
X717569Y449020D01*
X717739Y448980D01*
X717908Y448936D01*
X718076Y448888D01*
X718243Y448836D01*
X718408Y448780D01*
X718572Y448720D01*
X718735Y448657D01*
X718895Y448589D01*
X719055Y448517D01*
X719212Y448442D01*
X719368Y448362D01*
X719521Y448279D01*
X719673Y448193D01*
X719822Y448102D01*
X719969Y448008D01*
X720114Y447911D01*
X720257Y447810D01*
X720397Y447706D01*
X720534Y447598D01*
X720669Y447487D01*
X720801Y447373D01*
X720930Y447256D01*
X721057Y447135D01*
X721180Y447012D01*
X721301Y446885D01*
X721418Y446756D01*
X721532Y446624D01*
X721643Y446489D01*
X721751Y446352D01*
X721855Y446212D01*
X721956Y446069D01*
X722053Y445924D01*
X722147Y445777D01*
X722238Y445628D01*
X722324Y445476D01*
X722407Y445323D01*
X722487Y445167D01*
X722562Y445010D01*
X722634Y444850D01*
X722702Y444690D01*
X722765Y444527D01*
X722825Y444363D01*
X722881Y444198D01*
X722933Y444031D01*
X722981Y443863D01*
X723025Y443694D01*
X723065Y443524D01*
X723100Y443353D01*
X723132Y443181D01*
X723159Y443009D01*
X723182Y442836D01*
X723201Y442662D01*
X723216Y442488D01*
X723227Y442314D01*
X723233Y442140D01*
X723235Y441965D01*
X723235Y455165D02*
X722332Y455165D01*
X722332Y456068D01*
X723235Y456068D01*
X723235Y455165D01*
X716010Y465655D02*
X716010Y471074D01*
X716010Y465655D02*
X716008Y465537D01*
X716002Y465419D01*
X715993Y465301D01*
X715979Y465184D01*
X715962Y465067D01*
X715941Y464950D01*
X715916Y464835D01*
X715887Y464720D01*
X715854Y464606D01*
X715818Y464494D01*
X715778Y464383D01*
X715735Y464273D01*
X715688Y464164D01*
X715638Y464057D01*
X715583Y463952D01*
X715526Y463849D01*
X715465Y463748D01*
X715401Y463648D01*
X715334Y463551D01*
X715264Y463456D01*
X715190Y463364D01*
X715114Y463273D01*
X715034Y463186D01*
X714952Y463101D01*
X714867Y463019D01*
X714780Y462939D01*
X714689Y462863D01*
X714597Y462789D01*
X714502Y462719D01*
X714405Y462652D01*
X714305Y462588D01*
X714204Y462527D01*
X714101Y462470D01*
X713996Y462415D01*
X713889Y462365D01*
X713780Y462318D01*
X713670Y462275D01*
X713559Y462235D01*
X713447Y462199D01*
X713333Y462166D01*
X713218Y462137D01*
X713103Y462112D01*
X712986Y462091D01*
X712869Y462074D01*
X712752Y462060D01*
X712634Y462051D01*
X712516Y462045D01*
X712398Y462043D01*
X711495Y462043D01*
X711495Y462042D02*
X711362Y462044D01*
X711230Y462050D01*
X711098Y462060D01*
X710966Y462073D01*
X710834Y462091D01*
X710704Y462112D01*
X710573Y462137D01*
X710444Y462166D01*
X710316Y462199D01*
X710188Y462235D01*
X710062Y462275D01*
X709937Y462319D01*
X709813Y462367D01*
X709691Y462418D01*
X709570Y462473D01*
X709451Y462531D01*
X709333Y462593D01*
X709218Y462658D01*
X709104Y462727D01*
X708993Y462798D01*
X708884Y462874D01*
X708777Y462952D01*
X708672Y463033D01*
X708570Y463118D01*
X708470Y463205D01*
X708373Y463295D01*
X708278Y463388D01*
X708187Y463484D01*
X708098Y463582D01*
X708012Y463683D01*
X707929Y463787D01*
X707849Y463893D01*
X707773Y464001D01*
X707699Y464111D01*
X707629Y464224D01*
X707562Y464338D01*
X707499Y464455D01*
X707439Y464573D01*
X707382Y464693D01*
X707329Y464815D01*
X707280Y464938D01*
X707234Y465062D01*
X707192Y465188D01*
X707154Y465315D01*
X707119Y465443D01*
X707088Y465572D01*
X707061Y465701D01*
X707038Y465832D01*
X707018Y465963D01*
X707003Y466095D01*
X706991Y466227D01*
X706983Y466359D01*
X706979Y466492D01*
X706979Y466624D01*
X706983Y466757D01*
X706991Y466889D01*
X707003Y467021D01*
X707018Y467153D01*
X707038Y467284D01*
X707061Y467415D01*
X707088Y467544D01*
X707119Y467673D01*
X707154Y467801D01*
X707192Y467928D01*
X707234Y468054D01*
X707280Y468178D01*
X707329Y468301D01*
X707382Y468423D01*
X707439Y468543D01*
X707499Y468661D01*
X707562Y468778D01*
X707629Y468892D01*
X707699Y469005D01*
X707773Y469115D01*
X707849Y469223D01*
X707929Y469329D01*
X708012Y469433D01*
X708098Y469534D01*
X708187Y469632D01*
X708278Y469728D01*
X708373Y469821D01*
X708470Y469911D01*
X708570Y469998D01*
X708672Y470083D01*
X708777Y470164D01*
X708884Y470242D01*
X708993Y470318D01*
X709104Y470389D01*
X709218Y470458D01*
X709333Y470523D01*
X709451Y470585D01*
X709570Y470643D01*
X709691Y470698D01*
X709813Y470749D01*
X709937Y470797D01*
X710062Y470841D01*
X710188Y470881D01*
X710316Y470917D01*
X710444Y470950D01*
X710573Y470979D01*
X710704Y471004D01*
X710834Y471025D01*
X710966Y471043D01*
X711098Y471056D01*
X711230Y471066D01*
X711362Y471072D01*
X711495Y471074D01*
X716010Y471074D01*
X716185Y471072D01*
X716359Y471066D01*
X716533Y471055D01*
X716707Y471040D01*
X716881Y471021D01*
X717054Y470998D01*
X717226Y470971D01*
X717398Y470939D01*
X717569Y470904D01*
X717739Y470864D01*
X717908Y470820D01*
X718076Y470772D01*
X718243Y470720D01*
X718408Y470664D01*
X718572Y470604D01*
X718735Y470541D01*
X718895Y470473D01*
X719055Y470401D01*
X719212Y470326D01*
X719368Y470246D01*
X719521Y470163D01*
X719673Y470077D01*
X719822Y469986D01*
X719969Y469892D01*
X720114Y469795D01*
X720257Y469694D01*
X720397Y469590D01*
X720534Y469482D01*
X720669Y469371D01*
X720801Y469257D01*
X720930Y469140D01*
X721057Y469019D01*
X721180Y468896D01*
X721301Y468769D01*
X721418Y468640D01*
X721532Y468508D01*
X721643Y468373D01*
X721751Y468236D01*
X721855Y468096D01*
X721956Y467953D01*
X722053Y467808D01*
X722147Y467661D01*
X722238Y467512D01*
X722324Y467360D01*
X722407Y467207D01*
X722487Y467051D01*
X722562Y466894D01*
X722634Y466734D01*
X722702Y466574D01*
X722765Y466411D01*
X722825Y466247D01*
X722881Y466082D01*
X722933Y465915D01*
X722981Y465747D01*
X723025Y465578D01*
X723065Y465408D01*
X723100Y465237D01*
X723132Y465065D01*
X723159Y464893D01*
X723182Y464720D01*
X723201Y464546D01*
X723216Y464372D01*
X723227Y464198D01*
X723233Y464024D01*
X723235Y463849D01*
X716010Y481287D02*
X716010Y486705D01*
X716010Y481287D02*
X716008Y481169D01*
X716002Y481051D01*
X715993Y480933D01*
X715979Y480816D01*
X715962Y480699D01*
X715941Y480582D01*
X715916Y480467D01*
X715887Y480352D01*
X715854Y480238D01*
X715818Y480126D01*
X715778Y480015D01*
X715735Y479905D01*
X715688Y479796D01*
X715638Y479689D01*
X715583Y479584D01*
X715526Y479481D01*
X715465Y479380D01*
X715401Y479280D01*
X715334Y479183D01*
X715264Y479088D01*
X715190Y478996D01*
X715114Y478905D01*
X715034Y478818D01*
X714952Y478733D01*
X714867Y478651D01*
X714780Y478571D01*
X714689Y478495D01*
X714597Y478421D01*
X714502Y478351D01*
X714405Y478284D01*
X714305Y478220D01*
X714204Y478159D01*
X714101Y478102D01*
X713996Y478047D01*
X713889Y477997D01*
X713780Y477950D01*
X713670Y477907D01*
X713559Y477867D01*
X713447Y477831D01*
X713333Y477798D01*
X713218Y477769D01*
X713103Y477744D01*
X712986Y477723D01*
X712869Y477706D01*
X712752Y477692D01*
X712634Y477683D01*
X712516Y477677D01*
X712398Y477675D01*
X712398Y477674D02*
X711495Y477674D01*
X711362Y477676D01*
X711230Y477682D01*
X711098Y477692D01*
X710966Y477705D01*
X710834Y477723D01*
X710704Y477744D01*
X710573Y477769D01*
X710444Y477798D01*
X710316Y477831D01*
X710188Y477867D01*
X710062Y477907D01*
X709937Y477951D01*
X709813Y477999D01*
X709691Y478050D01*
X709570Y478105D01*
X709451Y478163D01*
X709333Y478225D01*
X709218Y478290D01*
X709104Y478359D01*
X708993Y478430D01*
X708884Y478506D01*
X708777Y478584D01*
X708672Y478665D01*
X708570Y478750D01*
X708470Y478837D01*
X708373Y478927D01*
X708278Y479020D01*
X708187Y479116D01*
X708098Y479214D01*
X708012Y479315D01*
X707929Y479419D01*
X707849Y479525D01*
X707773Y479633D01*
X707699Y479743D01*
X707629Y479856D01*
X707562Y479970D01*
X707499Y480087D01*
X707439Y480205D01*
X707382Y480325D01*
X707329Y480447D01*
X707280Y480570D01*
X707234Y480694D01*
X707192Y480820D01*
X707154Y480947D01*
X707119Y481075D01*
X707088Y481204D01*
X707061Y481333D01*
X707038Y481464D01*
X707018Y481595D01*
X707003Y481727D01*
X706991Y481859D01*
X706983Y481991D01*
X706979Y482124D01*
X706979Y482256D01*
X706983Y482389D01*
X706991Y482521D01*
X707003Y482653D01*
X707018Y482785D01*
X707038Y482916D01*
X707061Y483047D01*
X707088Y483176D01*
X707119Y483305D01*
X707154Y483433D01*
X707192Y483560D01*
X707234Y483686D01*
X707280Y483810D01*
X707329Y483933D01*
X707382Y484055D01*
X707439Y484175D01*
X707499Y484293D01*
X707562Y484410D01*
X707629Y484524D01*
X707699Y484637D01*
X707773Y484747D01*
X707849Y484855D01*
X707929Y484961D01*
X708012Y485065D01*
X708098Y485166D01*
X708187Y485264D01*
X708278Y485360D01*
X708373Y485453D01*
X708470Y485543D01*
X708570Y485630D01*
X708672Y485715D01*
X708777Y485796D01*
X708884Y485874D01*
X708993Y485950D01*
X709104Y486021D01*
X709218Y486090D01*
X709333Y486155D01*
X709451Y486217D01*
X709570Y486275D01*
X709691Y486330D01*
X709813Y486381D01*
X709937Y486429D01*
X710062Y486473D01*
X710188Y486513D01*
X710316Y486549D01*
X710444Y486582D01*
X710573Y486611D01*
X710704Y486636D01*
X710834Y486657D01*
X710966Y486675D01*
X711098Y486688D01*
X711230Y486698D01*
X711362Y486704D01*
X711495Y486706D01*
X711495Y486705D02*
X716010Y486705D01*
X716185Y486703D01*
X716359Y486697D01*
X716533Y486686D01*
X716707Y486671D01*
X716881Y486652D01*
X717054Y486629D01*
X717226Y486602D01*
X717398Y486570D01*
X717569Y486535D01*
X717739Y486495D01*
X717908Y486451D01*
X718076Y486403D01*
X718243Y486351D01*
X718408Y486295D01*
X718572Y486235D01*
X718735Y486172D01*
X718895Y486104D01*
X719055Y486032D01*
X719212Y485957D01*
X719368Y485877D01*
X719521Y485794D01*
X719673Y485708D01*
X719822Y485617D01*
X719969Y485523D01*
X720114Y485426D01*
X720257Y485325D01*
X720397Y485221D01*
X720534Y485113D01*
X720669Y485002D01*
X720801Y484888D01*
X720930Y484771D01*
X721057Y484650D01*
X721180Y484527D01*
X721301Y484400D01*
X721418Y484271D01*
X721532Y484139D01*
X721643Y484004D01*
X721751Y483867D01*
X721855Y483727D01*
X721956Y483584D01*
X722053Y483439D01*
X722147Y483292D01*
X722238Y483143D01*
X722324Y482991D01*
X722407Y482838D01*
X722487Y482682D01*
X722562Y482525D01*
X722634Y482365D01*
X722702Y482205D01*
X722765Y482042D01*
X722825Y481878D01*
X722881Y481713D01*
X722933Y481546D01*
X722981Y481378D01*
X723025Y481209D01*
X723065Y481039D01*
X723100Y480868D01*
X723132Y480696D01*
X723159Y480524D01*
X723182Y480351D01*
X723201Y480177D01*
X723216Y480003D01*
X723227Y479829D01*
X723233Y479655D01*
X723235Y479480D01*
D10*
X-11996Y755396D02*
X-52578Y755396D01*
X-52578Y155448D02*
X-11996Y155448D01*
X-31496Y156098D02*
X-31496Y754746D01*
X-34688Y729396D01*
X-28304Y729396D01*
X-31496Y754746D01*
X-32796Y729396D01*
X-30196Y729396D02*
X-31496Y754746D01*
X-34096Y729396D01*
X-28896Y729396D02*
X-31496Y754746D01*
X-34688Y181448D02*
X-31496Y156098D01*
X-34688Y181448D02*
X-28304Y181448D01*
X-31496Y156098D01*
X-32796Y181448D01*
X-30196Y181448D02*
X-31496Y156098D01*
X-34096Y181448D01*
X-28896Y181448D02*
X-31496Y156098D01*
D11*
X-38003Y424274D02*
X-38003Y429693D01*
X-38005Y429811D01*
X-38011Y429929D01*
X-38020Y430047D01*
X-38034Y430164D01*
X-38051Y430281D01*
X-38072Y430398D01*
X-38097Y430513D01*
X-38126Y430628D01*
X-38159Y430742D01*
X-38195Y430854D01*
X-38235Y430965D01*
X-38278Y431075D01*
X-38325Y431184D01*
X-38375Y431291D01*
X-38430Y431396D01*
X-38487Y431499D01*
X-38548Y431600D01*
X-38612Y431700D01*
X-38679Y431797D01*
X-38749Y431892D01*
X-38823Y431984D01*
X-38899Y432075D01*
X-38979Y432162D01*
X-39061Y432247D01*
X-39146Y432329D01*
X-39233Y432409D01*
X-39324Y432485D01*
X-39416Y432559D01*
X-39511Y432629D01*
X-39608Y432696D01*
X-39708Y432760D01*
X-39809Y432821D01*
X-39912Y432878D01*
X-40017Y432933D01*
X-40124Y432983D01*
X-40233Y433030D01*
X-40343Y433073D01*
X-40454Y433113D01*
X-40566Y433149D01*
X-40680Y433182D01*
X-40795Y433211D01*
X-40910Y433236D01*
X-41027Y433257D01*
X-41144Y433274D01*
X-41261Y433288D01*
X-41379Y433297D01*
X-41497Y433303D01*
X-41615Y433305D01*
X-43422Y433305D01*
X-43540Y433303D01*
X-43658Y433297D01*
X-43776Y433288D01*
X-43893Y433274D01*
X-44010Y433257D01*
X-44127Y433236D01*
X-44242Y433211D01*
X-44357Y433182D01*
X-44471Y433149D01*
X-44583Y433113D01*
X-44694Y433073D01*
X-44804Y433030D01*
X-44913Y432983D01*
X-45020Y432933D01*
X-45125Y432878D01*
X-45228Y432821D01*
X-45329Y432760D01*
X-45429Y432696D01*
X-45526Y432629D01*
X-45621Y432559D01*
X-45713Y432485D01*
X-45804Y432409D01*
X-45891Y432329D01*
X-45976Y432247D01*
X-46058Y432162D01*
X-46138Y432075D01*
X-46214Y431984D01*
X-46288Y431892D01*
X-46358Y431797D01*
X-46425Y431700D01*
X-46489Y431600D01*
X-46550Y431499D01*
X-46607Y431396D01*
X-46662Y431291D01*
X-46712Y431184D01*
X-46759Y431075D01*
X-46802Y430965D01*
X-46842Y430854D01*
X-46878Y430742D01*
X-46911Y430628D01*
X-46940Y430513D01*
X-46965Y430398D01*
X-46986Y430281D01*
X-47003Y430164D01*
X-47017Y430047D01*
X-47026Y429929D01*
X-47032Y429811D01*
X-47034Y429693D01*
X-47034Y424274D01*
X-54259Y424274D01*
X-54259Y433305D01*
X-45228Y443518D02*
X-45228Y448936D01*
X-45228Y443518D02*
X-45230Y443400D01*
X-45236Y443282D01*
X-45245Y443164D01*
X-45259Y443047D01*
X-45276Y442930D01*
X-45297Y442813D01*
X-45322Y442698D01*
X-45351Y442583D01*
X-45384Y442469D01*
X-45420Y442357D01*
X-45460Y442246D01*
X-45503Y442136D01*
X-45550Y442027D01*
X-45600Y441920D01*
X-45655Y441815D01*
X-45712Y441712D01*
X-45773Y441611D01*
X-45837Y441511D01*
X-45904Y441414D01*
X-45974Y441319D01*
X-46048Y441227D01*
X-46124Y441136D01*
X-46204Y441049D01*
X-46286Y440964D01*
X-46371Y440882D01*
X-46458Y440802D01*
X-46549Y440726D01*
X-46641Y440652D01*
X-46736Y440582D01*
X-46833Y440515D01*
X-46933Y440451D01*
X-47034Y440390D01*
X-47137Y440333D01*
X-47242Y440278D01*
X-47349Y440228D01*
X-47458Y440181D01*
X-47568Y440138D01*
X-47679Y440098D01*
X-47791Y440062D01*
X-47905Y440029D01*
X-48020Y440000D01*
X-48135Y439975D01*
X-48252Y439954D01*
X-48369Y439937D01*
X-48486Y439923D01*
X-48604Y439914D01*
X-48722Y439908D01*
X-48840Y439906D01*
X-48840Y439905D02*
X-49743Y439905D01*
X-49876Y439907D01*
X-50008Y439913D01*
X-50140Y439923D01*
X-50272Y439936D01*
X-50404Y439954D01*
X-50534Y439975D01*
X-50665Y440000D01*
X-50794Y440029D01*
X-50922Y440062D01*
X-51050Y440098D01*
X-51176Y440138D01*
X-51301Y440182D01*
X-51425Y440230D01*
X-51547Y440281D01*
X-51668Y440336D01*
X-51787Y440394D01*
X-51905Y440456D01*
X-52020Y440521D01*
X-52134Y440590D01*
X-52245Y440661D01*
X-52354Y440737D01*
X-52461Y440815D01*
X-52566Y440896D01*
X-52668Y440981D01*
X-52768Y441068D01*
X-52865Y441158D01*
X-52960Y441251D01*
X-53051Y441347D01*
X-53140Y441445D01*
X-53226Y441546D01*
X-53309Y441650D01*
X-53389Y441756D01*
X-53465Y441864D01*
X-53539Y441974D01*
X-53609Y442087D01*
X-53676Y442201D01*
X-53739Y442318D01*
X-53799Y442436D01*
X-53856Y442556D01*
X-53909Y442678D01*
X-53958Y442801D01*
X-54004Y442925D01*
X-54046Y443051D01*
X-54084Y443178D01*
X-54119Y443306D01*
X-54150Y443435D01*
X-54177Y443564D01*
X-54200Y443695D01*
X-54220Y443826D01*
X-54235Y443958D01*
X-54247Y444090D01*
X-54255Y444222D01*
X-54259Y444355D01*
X-54259Y444487D01*
X-54255Y444620D01*
X-54247Y444752D01*
X-54235Y444884D01*
X-54220Y445016D01*
X-54200Y445147D01*
X-54177Y445278D01*
X-54150Y445407D01*
X-54119Y445536D01*
X-54084Y445664D01*
X-54046Y445791D01*
X-54004Y445917D01*
X-53958Y446041D01*
X-53909Y446164D01*
X-53856Y446286D01*
X-53799Y446406D01*
X-53739Y446524D01*
X-53676Y446641D01*
X-53609Y446755D01*
X-53539Y446868D01*
X-53465Y446978D01*
X-53389Y447086D01*
X-53309Y447192D01*
X-53226Y447296D01*
X-53140Y447397D01*
X-53051Y447495D01*
X-52960Y447591D01*
X-52865Y447684D01*
X-52768Y447774D01*
X-52668Y447861D01*
X-52566Y447946D01*
X-52461Y448027D01*
X-52354Y448105D01*
X-52245Y448181D01*
X-52134Y448252D01*
X-52020Y448321D01*
X-51905Y448386D01*
X-51787Y448448D01*
X-51668Y448506D01*
X-51547Y448561D01*
X-51425Y448612D01*
X-51301Y448660D01*
X-51176Y448704D01*
X-51050Y448744D01*
X-50922Y448780D01*
X-50794Y448813D01*
X-50665Y448842D01*
X-50534Y448867D01*
X-50404Y448888D01*
X-50272Y448906D01*
X-50140Y448919D01*
X-50008Y448929D01*
X-49876Y448935D01*
X-49743Y448937D01*
X-49743Y448936D02*
X-45228Y448936D01*
X-45053Y448934D01*
X-44879Y448928D01*
X-44705Y448917D01*
X-44531Y448902D01*
X-44357Y448883D01*
X-44184Y448860D01*
X-44012Y448833D01*
X-43840Y448801D01*
X-43669Y448766D01*
X-43499Y448726D01*
X-43330Y448682D01*
X-43162Y448634D01*
X-42995Y448582D01*
X-42830Y448526D01*
X-42666Y448466D01*
X-42503Y448403D01*
X-42343Y448335D01*
X-42183Y448263D01*
X-42026Y448188D01*
X-41870Y448108D01*
X-41717Y448025D01*
X-41565Y447939D01*
X-41416Y447848D01*
X-41269Y447754D01*
X-41124Y447657D01*
X-40981Y447556D01*
X-40841Y447452D01*
X-40704Y447344D01*
X-40569Y447233D01*
X-40437Y447119D01*
X-40308Y447002D01*
X-40181Y446881D01*
X-40058Y446758D01*
X-39937Y446631D01*
X-39820Y446502D01*
X-39706Y446370D01*
X-39595Y446235D01*
X-39487Y446098D01*
X-39383Y445958D01*
X-39282Y445815D01*
X-39185Y445670D01*
X-39091Y445523D01*
X-39000Y445374D01*
X-38914Y445222D01*
X-38831Y445069D01*
X-38751Y444913D01*
X-38676Y444756D01*
X-38604Y444596D01*
X-38536Y444436D01*
X-38473Y444273D01*
X-38413Y444109D01*
X-38357Y443944D01*
X-38305Y443777D01*
X-38257Y443609D01*
X-38213Y443440D01*
X-38173Y443270D01*
X-38138Y443099D01*
X-38106Y442927D01*
X-38079Y442755D01*
X-38056Y442582D01*
X-38037Y442408D01*
X-38022Y442234D01*
X-38011Y442060D01*
X-38005Y441886D01*
X-38003Y441711D01*
X-38003Y454911D02*
X-38906Y454911D01*
X-38906Y455814D01*
X-38003Y455814D01*
X-38003Y454911D01*
X-45228Y465401D02*
X-45228Y470820D01*
X-45228Y465401D02*
X-45230Y465283D01*
X-45236Y465165D01*
X-45245Y465047D01*
X-45259Y464930D01*
X-45276Y464813D01*
X-45297Y464696D01*
X-45322Y464581D01*
X-45351Y464466D01*
X-45384Y464352D01*
X-45420Y464240D01*
X-45460Y464129D01*
X-45503Y464019D01*
X-45550Y463910D01*
X-45600Y463803D01*
X-45655Y463698D01*
X-45712Y463595D01*
X-45773Y463494D01*
X-45837Y463394D01*
X-45904Y463297D01*
X-45974Y463202D01*
X-46048Y463110D01*
X-46124Y463019D01*
X-46204Y462932D01*
X-46286Y462847D01*
X-46371Y462765D01*
X-46458Y462685D01*
X-46549Y462609D01*
X-46641Y462535D01*
X-46736Y462465D01*
X-46833Y462398D01*
X-46933Y462334D01*
X-47034Y462273D01*
X-47137Y462216D01*
X-47242Y462161D01*
X-47349Y462111D01*
X-47458Y462064D01*
X-47568Y462021D01*
X-47679Y461981D01*
X-47791Y461945D01*
X-47905Y461912D01*
X-48020Y461883D01*
X-48135Y461858D01*
X-48252Y461837D01*
X-48369Y461820D01*
X-48486Y461806D01*
X-48604Y461797D01*
X-48722Y461791D01*
X-48840Y461789D01*
X-49743Y461789D01*
X-49743Y461788D02*
X-49876Y461790D01*
X-50008Y461796D01*
X-50140Y461806D01*
X-50272Y461819D01*
X-50404Y461837D01*
X-50534Y461858D01*
X-50665Y461883D01*
X-50794Y461912D01*
X-50922Y461945D01*
X-51050Y461981D01*
X-51176Y462021D01*
X-51301Y462065D01*
X-51425Y462113D01*
X-51547Y462164D01*
X-51668Y462219D01*
X-51787Y462277D01*
X-51905Y462339D01*
X-52020Y462404D01*
X-52134Y462473D01*
X-52245Y462544D01*
X-52354Y462620D01*
X-52461Y462698D01*
X-52566Y462779D01*
X-52668Y462864D01*
X-52768Y462951D01*
X-52865Y463041D01*
X-52960Y463134D01*
X-53051Y463230D01*
X-53140Y463328D01*
X-53226Y463429D01*
X-53309Y463533D01*
X-53389Y463639D01*
X-53465Y463747D01*
X-53539Y463857D01*
X-53609Y463970D01*
X-53676Y464084D01*
X-53739Y464201D01*
X-53799Y464319D01*
X-53856Y464439D01*
X-53909Y464561D01*
X-53958Y464684D01*
X-54004Y464808D01*
X-54046Y464934D01*
X-54084Y465061D01*
X-54119Y465189D01*
X-54150Y465318D01*
X-54177Y465447D01*
X-54200Y465578D01*
X-54220Y465709D01*
X-54235Y465841D01*
X-54247Y465973D01*
X-54255Y466105D01*
X-54259Y466238D01*
X-54259Y466370D01*
X-54255Y466503D01*
X-54247Y466635D01*
X-54235Y466767D01*
X-54220Y466899D01*
X-54200Y467030D01*
X-54177Y467161D01*
X-54150Y467290D01*
X-54119Y467419D01*
X-54084Y467547D01*
X-54046Y467674D01*
X-54004Y467800D01*
X-53958Y467924D01*
X-53909Y468047D01*
X-53856Y468169D01*
X-53799Y468289D01*
X-53739Y468407D01*
X-53676Y468524D01*
X-53609Y468638D01*
X-53539Y468751D01*
X-53465Y468861D01*
X-53389Y468969D01*
X-53309Y469075D01*
X-53226Y469179D01*
X-53140Y469280D01*
X-53051Y469378D01*
X-52960Y469474D01*
X-52865Y469567D01*
X-52768Y469657D01*
X-52668Y469744D01*
X-52566Y469829D01*
X-52461Y469910D01*
X-52354Y469988D01*
X-52245Y470064D01*
X-52134Y470135D01*
X-52020Y470204D01*
X-51905Y470269D01*
X-51787Y470331D01*
X-51668Y470389D01*
X-51547Y470444D01*
X-51425Y470495D01*
X-51301Y470543D01*
X-51176Y470587D01*
X-51050Y470627D01*
X-50922Y470663D01*
X-50794Y470696D01*
X-50665Y470725D01*
X-50534Y470750D01*
X-50404Y470771D01*
X-50272Y470789D01*
X-50140Y470802D01*
X-50008Y470812D01*
X-49876Y470818D01*
X-49743Y470820D01*
X-45228Y470820D01*
X-45053Y470818D01*
X-44879Y470812D01*
X-44705Y470801D01*
X-44531Y470786D01*
X-44357Y470767D01*
X-44184Y470744D01*
X-44012Y470717D01*
X-43840Y470685D01*
X-43669Y470650D01*
X-43499Y470610D01*
X-43330Y470566D01*
X-43162Y470518D01*
X-42995Y470466D01*
X-42830Y470410D01*
X-42666Y470350D01*
X-42503Y470287D01*
X-42343Y470219D01*
X-42183Y470147D01*
X-42026Y470072D01*
X-41870Y469992D01*
X-41717Y469909D01*
X-41565Y469823D01*
X-41416Y469732D01*
X-41269Y469638D01*
X-41124Y469541D01*
X-40981Y469440D01*
X-40841Y469336D01*
X-40704Y469228D01*
X-40569Y469117D01*
X-40437Y469003D01*
X-40308Y468886D01*
X-40181Y468765D01*
X-40058Y468642D01*
X-39937Y468515D01*
X-39820Y468386D01*
X-39706Y468254D01*
X-39595Y468119D01*
X-39487Y467982D01*
X-39383Y467842D01*
X-39282Y467699D01*
X-39185Y467554D01*
X-39091Y467407D01*
X-39000Y467258D01*
X-38914Y467106D01*
X-38831Y466953D01*
X-38751Y466797D01*
X-38676Y466640D01*
X-38604Y466480D01*
X-38536Y466320D01*
X-38473Y466157D01*
X-38413Y465993D01*
X-38357Y465828D01*
X-38305Y465661D01*
X-38257Y465493D01*
X-38213Y465324D01*
X-38173Y465154D01*
X-38138Y464983D01*
X-38106Y464811D01*
X-38079Y464639D01*
X-38056Y464466D01*
X-38037Y464292D01*
X-38022Y464118D01*
X-38011Y463944D01*
X-38005Y463770D01*
X-38003Y463595D01*
X-45228Y481033D02*
X-45228Y486451D01*
X-45228Y481033D02*
X-45230Y480915D01*
X-45236Y480797D01*
X-45245Y480679D01*
X-45259Y480562D01*
X-45276Y480445D01*
X-45297Y480328D01*
X-45322Y480213D01*
X-45351Y480098D01*
X-45384Y479984D01*
X-45420Y479872D01*
X-45460Y479761D01*
X-45503Y479651D01*
X-45550Y479542D01*
X-45600Y479435D01*
X-45655Y479330D01*
X-45712Y479227D01*
X-45773Y479126D01*
X-45837Y479026D01*
X-45904Y478929D01*
X-45974Y478834D01*
X-46048Y478742D01*
X-46124Y478651D01*
X-46204Y478564D01*
X-46286Y478479D01*
X-46371Y478397D01*
X-46458Y478317D01*
X-46549Y478241D01*
X-46641Y478167D01*
X-46736Y478097D01*
X-46833Y478030D01*
X-46933Y477966D01*
X-47034Y477905D01*
X-47137Y477848D01*
X-47242Y477793D01*
X-47349Y477743D01*
X-47458Y477696D01*
X-47568Y477653D01*
X-47679Y477613D01*
X-47791Y477577D01*
X-47905Y477544D01*
X-48020Y477515D01*
X-48135Y477490D01*
X-48252Y477469D01*
X-48369Y477452D01*
X-48486Y477438D01*
X-48604Y477429D01*
X-48722Y477423D01*
X-48840Y477421D01*
X-48840Y477420D02*
X-49743Y477420D01*
X-49876Y477422D01*
X-50008Y477428D01*
X-50140Y477438D01*
X-50272Y477451D01*
X-50404Y477469D01*
X-50534Y477490D01*
X-50665Y477515D01*
X-50794Y477544D01*
X-50922Y477577D01*
X-51050Y477613D01*
X-51176Y477653D01*
X-51301Y477697D01*
X-51425Y477745D01*
X-51547Y477796D01*
X-51668Y477851D01*
X-51787Y477909D01*
X-51905Y477971D01*
X-52020Y478036D01*
X-52134Y478105D01*
X-52245Y478176D01*
X-52354Y478252D01*
X-52461Y478330D01*
X-52566Y478411D01*
X-52668Y478496D01*
X-52768Y478583D01*
X-52865Y478673D01*
X-52960Y478766D01*
X-53051Y478862D01*
X-53140Y478960D01*
X-53226Y479061D01*
X-53309Y479165D01*
X-53389Y479271D01*
X-53465Y479379D01*
X-53539Y479489D01*
X-53609Y479602D01*
X-53676Y479716D01*
X-53739Y479833D01*
X-53799Y479951D01*
X-53856Y480071D01*
X-53909Y480193D01*
X-53958Y480316D01*
X-54004Y480440D01*
X-54046Y480566D01*
X-54084Y480693D01*
X-54119Y480821D01*
X-54150Y480950D01*
X-54177Y481079D01*
X-54200Y481210D01*
X-54220Y481341D01*
X-54235Y481473D01*
X-54247Y481605D01*
X-54255Y481737D01*
X-54259Y481870D01*
X-54259Y482002D01*
X-54255Y482135D01*
X-54247Y482267D01*
X-54235Y482399D01*
X-54220Y482531D01*
X-54200Y482662D01*
X-54177Y482793D01*
X-54150Y482922D01*
X-54119Y483051D01*
X-54084Y483179D01*
X-54046Y483306D01*
X-54004Y483432D01*
X-53958Y483556D01*
X-53909Y483679D01*
X-53856Y483801D01*
X-53799Y483921D01*
X-53739Y484039D01*
X-53676Y484156D01*
X-53609Y484270D01*
X-53539Y484383D01*
X-53465Y484493D01*
X-53389Y484601D01*
X-53309Y484707D01*
X-53226Y484811D01*
X-53140Y484912D01*
X-53051Y485010D01*
X-52960Y485106D01*
X-52865Y485199D01*
X-52768Y485289D01*
X-52668Y485376D01*
X-52566Y485461D01*
X-52461Y485542D01*
X-52354Y485620D01*
X-52245Y485696D01*
X-52134Y485767D01*
X-52020Y485836D01*
X-51905Y485901D01*
X-51787Y485963D01*
X-51668Y486021D01*
X-51547Y486076D01*
X-51425Y486127D01*
X-51301Y486175D01*
X-51176Y486219D01*
X-51050Y486259D01*
X-50922Y486295D01*
X-50794Y486328D01*
X-50665Y486357D01*
X-50534Y486382D01*
X-50404Y486403D01*
X-50272Y486421D01*
X-50140Y486434D01*
X-50008Y486444D01*
X-49876Y486450D01*
X-49743Y486452D01*
X-49743Y486451D02*
X-45228Y486451D01*
X-45053Y486449D01*
X-44879Y486443D01*
X-44705Y486432D01*
X-44531Y486417D01*
X-44357Y486398D01*
X-44184Y486375D01*
X-44012Y486348D01*
X-43840Y486316D01*
X-43669Y486281D01*
X-43499Y486241D01*
X-43330Y486197D01*
X-43162Y486149D01*
X-42995Y486097D01*
X-42830Y486041D01*
X-42666Y485981D01*
X-42503Y485918D01*
X-42343Y485850D01*
X-42183Y485778D01*
X-42026Y485703D01*
X-41870Y485623D01*
X-41717Y485540D01*
X-41565Y485454D01*
X-41416Y485363D01*
X-41269Y485269D01*
X-41124Y485172D01*
X-40981Y485071D01*
X-40841Y484967D01*
X-40704Y484859D01*
X-40569Y484748D01*
X-40437Y484634D01*
X-40308Y484517D01*
X-40181Y484396D01*
X-40058Y484273D01*
X-39937Y484146D01*
X-39820Y484017D01*
X-39706Y483885D01*
X-39595Y483750D01*
X-39487Y483613D01*
X-39383Y483473D01*
X-39282Y483330D01*
X-39185Y483185D01*
X-39091Y483038D01*
X-39000Y482889D01*
X-38914Y482737D01*
X-38831Y482584D01*
X-38751Y482428D01*
X-38676Y482271D01*
X-38604Y482111D01*
X-38536Y481951D01*
X-38473Y481788D01*
X-38413Y481624D01*
X-38357Y481459D01*
X-38305Y481292D01*
X-38257Y481124D01*
X-38213Y480955D01*
X-38173Y480785D01*
X-38138Y480614D01*
X-38106Y480442D01*
X-38079Y480270D01*
X-38056Y480097D01*
X-38037Y479923D01*
X-38022Y479749D01*
X-38011Y479575D01*
X-38005Y479401D01*
X-38003Y479226D01*
D10*
X51054Y92652D02*
X51054Y57658D01*
X651002Y57658D02*
X651002Y92652D01*
X650352Y73152D02*
X51704Y73152D01*
X77054Y76344D01*
X77054Y69960D01*
X51704Y73152D01*
X77054Y74452D01*
X77054Y71852D02*
X51704Y73152D01*
X77054Y75752D01*
X77054Y70552D02*
X51704Y73152D01*
X625002Y76344D02*
X650352Y73152D01*
X625002Y76344D02*
X625002Y69960D01*
X650352Y73152D01*
X625002Y74452D01*
X625002Y71852D02*
X650352Y73152D01*
X625002Y75752D01*
X625002Y70552D02*
X650352Y73152D01*
D11*
X325299Y79659D02*
X319880Y79659D01*
X325299Y79659D02*
X325417Y79661D01*
X325535Y79667D01*
X325653Y79676D01*
X325770Y79690D01*
X325887Y79707D01*
X326004Y79728D01*
X326119Y79753D01*
X326234Y79782D01*
X326348Y79815D01*
X326460Y79851D01*
X326571Y79891D01*
X326681Y79934D01*
X326790Y79981D01*
X326897Y80031D01*
X327002Y80086D01*
X327105Y80143D01*
X327206Y80204D01*
X327306Y80268D01*
X327403Y80335D01*
X327498Y80405D01*
X327590Y80479D01*
X327681Y80555D01*
X327768Y80635D01*
X327853Y80717D01*
X327935Y80802D01*
X328015Y80889D01*
X328091Y80980D01*
X328165Y81072D01*
X328235Y81167D01*
X328302Y81264D01*
X328366Y81364D01*
X328427Y81465D01*
X328484Y81568D01*
X328539Y81673D01*
X328589Y81780D01*
X328636Y81889D01*
X328679Y81999D01*
X328719Y82110D01*
X328755Y82222D01*
X328788Y82336D01*
X328817Y82451D01*
X328842Y82566D01*
X328863Y82683D01*
X328880Y82800D01*
X328894Y82917D01*
X328903Y83035D01*
X328909Y83153D01*
X328911Y83271D01*
X328911Y85078D01*
X328909Y85196D01*
X328903Y85314D01*
X328894Y85432D01*
X328880Y85549D01*
X328863Y85666D01*
X328842Y85783D01*
X328817Y85898D01*
X328788Y86013D01*
X328755Y86127D01*
X328719Y86239D01*
X328679Y86350D01*
X328636Y86460D01*
X328589Y86569D01*
X328539Y86676D01*
X328484Y86781D01*
X328427Y86884D01*
X328366Y86985D01*
X328302Y87085D01*
X328235Y87182D01*
X328165Y87277D01*
X328091Y87369D01*
X328015Y87460D01*
X327935Y87547D01*
X327853Y87632D01*
X327768Y87714D01*
X327681Y87794D01*
X327590Y87870D01*
X327498Y87944D01*
X327403Y88014D01*
X327306Y88081D01*
X327206Y88145D01*
X327105Y88206D01*
X327002Y88263D01*
X326897Y88318D01*
X326790Y88368D01*
X326681Y88415D01*
X326571Y88458D01*
X326460Y88498D01*
X326348Y88534D01*
X326234Y88567D01*
X326119Y88596D01*
X326004Y88621D01*
X325887Y88642D01*
X325770Y88659D01*
X325653Y88673D01*
X325535Y88682D01*
X325417Y88688D01*
X325299Y88690D01*
X319880Y88690D01*
X319880Y95915D01*
X328911Y95915D01*
X339124Y86884D02*
X344542Y86884D01*
X339124Y86884D02*
X339006Y86886D01*
X338888Y86892D01*
X338770Y86901D01*
X338653Y86915D01*
X338536Y86932D01*
X338419Y86953D01*
X338304Y86978D01*
X338189Y87007D01*
X338075Y87040D01*
X337963Y87076D01*
X337852Y87116D01*
X337742Y87159D01*
X337633Y87206D01*
X337526Y87256D01*
X337421Y87311D01*
X337318Y87368D01*
X337217Y87429D01*
X337117Y87493D01*
X337020Y87560D01*
X336925Y87630D01*
X336833Y87704D01*
X336742Y87780D01*
X336655Y87860D01*
X336570Y87942D01*
X336488Y88027D01*
X336408Y88114D01*
X336332Y88205D01*
X336258Y88297D01*
X336188Y88392D01*
X336121Y88489D01*
X336057Y88589D01*
X335996Y88690D01*
X335939Y88793D01*
X335884Y88898D01*
X335834Y89005D01*
X335787Y89114D01*
X335744Y89224D01*
X335704Y89335D01*
X335668Y89447D01*
X335635Y89561D01*
X335606Y89676D01*
X335581Y89791D01*
X335560Y89908D01*
X335543Y90025D01*
X335529Y90142D01*
X335520Y90260D01*
X335514Y90378D01*
X335512Y90496D01*
X335511Y90496D02*
X335511Y91399D01*
X335513Y91532D01*
X335519Y91664D01*
X335529Y91796D01*
X335542Y91928D01*
X335560Y92060D01*
X335581Y92190D01*
X335606Y92321D01*
X335635Y92450D01*
X335668Y92578D01*
X335704Y92706D01*
X335744Y92832D01*
X335788Y92957D01*
X335836Y93081D01*
X335887Y93203D01*
X335942Y93324D01*
X336000Y93443D01*
X336062Y93561D01*
X336127Y93676D01*
X336196Y93790D01*
X336267Y93901D01*
X336343Y94010D01*
X336421Y94117D01*
X336502Y94222D01*
X336587Y94324D01*
X336674Y94424D01*
X336764Y94521D01*
X336857Y94616D01*
X336953Y94707D01*
X337051Y94796D01*
X337152Y94882D01*
X337256Y94965D01*
X337362Y95045D01*
X337470Y95121D01*
X337580Y95195D01*
X337693Y95265D01*
X337807Y95332D01*
X337924Y95395D01*
X338042Y95455D01*
X338162Y95512D01*
X338284Y95565D01*
X338407Y95614D01*
X338531Y95660D01*
X338657Y95702D01*
X338784Y95740D01*
X338912Y95775D01*
X339041Y95806D01*
X339170Y95833D01*
X339301Y95856D01*
X339432Y95876D01*
X339564Y95891D01*
X339696Y95903D01*
X339828Y95911D01*
X339961Y95915D01*
X340093Y95915D01*
X340226Y95911D01*
X340358Y95903D01*
X340490Y95891D01*
X340622Y95876D01*
X340753Y95856D01*
X340884Y95833D01*
X341013Y95806D01*
X341142Y95775D01*
X341270Y95740D01*
X341397Y95702D01*
X341523Y95660D01*
X341647Y95614D01*
X341770Y95565D01*
X341892Y95512D01*
X342012Y95455D01*
X342130Y95395D01*
X342247Y95332D01*
X342361Y95265D01*
X342474Y95195D01*
X342584Y95121D01*
X342692Y95045D01*
X342798Y94965D01*
X342902Y94882D01*
X343003Y94796D01*
X343101Y94707D01*
X343197Y94616D01*
X343290Y94521D01*
X343380Y94424D01*
X343467Y94324D01*
X343552Y94222D01*
X343633Y94117D01*
X343711Y94010D01*
X343787Y93901D01*
X343858Y93790D01*
X343927Y93676D01*
X343992Y93561D01*
X344054Y93443D01*
X344112Y93324D01*
X344167Y93203D01*
X344218Y93081D01*
X344266Y92957D01*
X344310Y92832D01*
X344350Y92706D01*
X344386Y92578D01*
X344419Y92450D01*
X344448Y92321D01*
X344473Y92190D01*
X344494Y92060D01*
X344512Y91928D01*
X344525Y91796D01*
X344535Y91664D01*
X344541Y91532D01*
X344543Y91399D01*
X344542Y91399D02*
X344542Y86884D01*
X344540Y86709D01*
X344534Y86535D01*
X344523Y86361D01*
X344508Y86187D01*
X344489Y86013D01*
X344466Y85840D01*
X344439Y85668D01*
X344407Y85496D01*
X344372Y85325D01*
X344332Y85155D01*
X344288Y84986D01*
X344240Y84818D01*
X344188Y84651D01*
X344132Y84486D01*
X344072Y84322D01*
X344009Y84159D01*
X343941Y83999D01*
X343869Y83839D01*
X343794Y83682D01*
X343714Y83526D01*
X343631Y83373D01*
X343545Y83221D01*
X343454Y83072D01*
X343360Y82925D01*
X343263Y82780D01*
X343162Y82637D01*
X343058Y82497D01*
X342950Y82360D01*
X342839Y82225D01*
X342725Y82093D01*
X342608Y81964D01*
X342487Y81837D01*
X342364Y81714D01*
X342237Y81593D01*
X342108Y81476D01*
X341976Y81362D01*
X341841Y81251D01*
X341704Y81143D01*
X341564Y81039D01*
X341421Y80938D01*
X341276Y80841D01*
X341129Y80747D01*
X340980Y80656D01*
X340828Y80570D01*
X340675Y80487D01*
X340519Y80407D01*
X340362Y80332D01*
X340202Y80260D01*
X340042Y80192D01*
X339879Y80129D01*
X339715Y80069D01*
X339550Y80013D01*
X339383Y79961D01*
X339215Y79913D01*
X339046Y79869D01*
X338876Y79829D01*
X338705Y79794D01*
X338533Y79762D01*
X338361Y79735D01*
X338188Y79712D01*
X338014Y79693D01*
X337840Y79678D01*
X337666Y79667D01*
X337492Y79661D01*
X337317Y79659D01*
X350517Y79659D02*
X350517Y80562D01*
X351420Y80562D01*
X351420Y79659D01*
X350517Y79659D01*
X361007Y86884D02*
X366426Y86884D01*
X361007Y86884D02*
X360889Y86886D01*
X360771Y86892D01*
X360653Y86901D01*
X360536Y86915D01*
X360419Y86932D01*
X360302Y86953D01*
X360187Y86978D01*
X360072Y87007D01*
X359958Y87040D01*
X359846Y87076D01*
X359735Y87116D01*
X359625Y87159D01*
X359516Y87206D01*
X359409Y87256D01*
X359304Y87311D01*
X359201Y87368D01*
X359100Y87429D01*
X359000Y87493D01*
X358903Y87560D01*
X358808Y87630D01*
X358716Y87704D01*
X358625Y87780D01*
X358538Y87860D01*
X358453Y87942D01*
X358371Y88027D01*
X358291Y88114D01*
X358215Y88205D01*
X358141Y88297D01*
X358071Y88392D01*
X358004Y88489D01*
X357940Y88589D01*
X357879Y88690D01*
X357822Y88793D01*
X357767Y88898D01*
X357717Y89005D01*
X357670Y89114D01*
X357627Y89224D01*
X357587Y89335D01*
X357551Y89447D01*
X357518Y89561D01*
X357489Y89676D01*
X357464Y89791D01*
X357443Y89908D01*
X357426Y90025D01*
X357412Y90142D01*
X357403Y90260D01*
X357397Y90378D01*
X357395Y90496D01*
X357395Y91399D01*
X357394Y91399D02*
X357396Y91532D01*
X357402Y91664D01*
X357412Y91796D01*
X357425Y91928D01*
X357443Y92060D01*
X357464Y92190D01*
X357489Y92321D01*
X357518Y92450D01*
X357551Y92578D01*
X357587Y92706D01*
X357627Y92832D01*
X357671Y92957D01*
X357719Y93081D01*
X357770Y93203D01*
X357825Y93324D01*
X357883Y93443D01*
X357945Y93561D01*
X358010Y93676D01*
X358079Y93790D01*
X358150Y93901D01*
X358226Y94010D01*
X358304Y94117D01*
X358385Y94222D01*
X358470Y94324D01*
X358557Y94424D01*
X358647Y94521D01*
X358740Y94616D01*
X358836Y94707D01*
X358934Y94796D01*
X359035Y94882D01*
X359139Y94965D01*
X359245Y95045D01*
X359353Y95121D01*
X359463Y95195D01*
X359576Y95265D01*
X359690Y95332D01*
X359807Y95395D01*
X359925Y95455D01*
X360045Y95512D01*
X360167Y95565D01*
X360290Y95614D01*
X360414Y95660D01*
X360540Y95702D01*
X360667Y95740D01*
X360795Y95775D01*
X360924Y95806D01*
X361053Y95833D01*
X361184Y95856D01*
X361315Y95876D01*
X361447Y95891D01*
X361579Y95903D01*
X361711Y95911D01*
X361844Y95915D01*
X361976Y95915D01*
X362109Y95911D01*
X362241Y95903D01*
X362373Y95891D01*
X362505Y95876D01*
X362636Y95856D01*
X362767Y95833D01*
X362896Y95806D01*
X363025Y95775D01*
X363153Y95740D01*
X363280Y95702D01*
X363406Y95660D01*
X363530Y95614D01*
X363653Y95565D01*
X363775Y95512D01*
X363895Y95455D01*
X364013Y95395D01*
X364130Y95332D01*
X364244Y95265D01*
X364357Y95195D01*
X364467Y95121D01*
X364575Y95045D01*
X364681Y94965D01*
X364785Y94882D01*
X364886Y94796D01*
X364984Y94707D01*
X365080Y94616D01*
X365173Y94521D01*
X365263Y94424D01*
X365350Y94324D01*
X365435Y94222D01*
X365516Y94117D01*
X365594Y94010D01*
X365670Y93901D01*
X365741Y93790D01*
X365810Y93676D01*
X365875Y93561D01*
X365937Y93443D01*
X365995Y93324D01*
X366050Y93203D01*
X366101Y93081D01*
X366149Y92957D01*
X366193Y92832D01*
X366233Y92706D01*
X366269Y92578D01*
X366302Y92450D01*
X366331Y92321D01*
X366356Y92190D01*
X366377Y92060D01*
X366395Y91928D01*
X366408Y91796D01*
X366418Y91664D01*
X366424Y91532D01*
X366426Y91399D01*
X366426Y86884D01*
X366424Y86709D01*
X366418Y86535D01*
X366407Y86361D01*
X366392Y86187D01*
X366373Y86013D01*
X366350Y85840D01*
X366323Y85668D01*
X366291Y85496D01*
X366256Y85325D01*
X366216Y85155D01*
X366172Y84986D01*
X366124Y84818D01*
X366072Y84651D01*
X366016Y84486D01*
X365956Y84322D01*
X365893Y84159D01*
X365825Y83999D01*
X365753Y83839D01*
X365678Y83682D01*
X365598Y83526D01*
X365515Y83373D01*
X365429Y83221D01*
X365338Y83072D01*
X365244Y82925D01*
X365147Y82780D01*
X365046Y82637D01*
X364942Y82497D01*
X364834Y82360D01*
X364723Y82225D01*
X364609Y82093D01*
X364492Y81964D01*
X364371Y81837D01*
X364248Y81714D01*
X364121Y81593D01*
X363992Y81476D01*
X363860Y81362D01*
X363725Y81251D01*
X363588Y81143D01*
X363448Y81039D01*
X363305Y80938D01*
X363160Y80841D01*
X363013Y80747D01*
X362864Y80656D01*
X362712Y80570D01*
X362559Y80487D01*
X362403Y80407D01*
X362246Y80332D01*
X362086Y80260D01*
X361926Y80192D01*
X361763Y80129D01*
X361599Y80069D01*
X361434Y80013D01*
X361267Y79961D01*
X361099Y79913D01*
X360930Y79869D01*
X360760Y79829D01*
X360589Y79794D01*
X360417Y79762D01*
X360245Y79735D01*
X360072Y79712D01*
X359898Y79693D01*
X359724Y79678D01*
X359550Y79667D01*
X359376Y79661D01*
X359201Y79659D01*
X376639Y86884D02*
X382057Y86884D01*
X376639Y86884D02*
X376521Y86886D01*
X376403Y86892D01*
X376285Y86901D01*
X376168Y86915D01*
X376051Y86932D01*
X375934Y86953D01*
X375819Y86978D01*
X375704Y87007D01*
X375590Y87040D01*
X375478Y87076D01*
X375367Y87116D01*
X375257Y87159D01*
X375148Y87206D01*
X375041Y87256D01*
X374936Y87311D01*
X374833Y87368D01*
X374732Y87429D01*
X374632Y87493D01*
X374535Y87560D01*
X374440Y87630D01*
X374348Y87704D01*
X374257Y87780D01*
X374170Y87860D01*
X374085Y87942D01*
X374003Y88027D01*
X373923Y88114D01*
X373847Y88205D01*
X373773Y88297D01*
X373703Y88392D01*
X373636Y88489D01*
X373572Y88589D01*
X373511Y88690D01*
X373454Y88793D01*
X373399Y88898D01*
X373349Y89005D01*
X373302Y89114D01*
X373259Y89224D01*
X373219Y89335D01*
X373183Y89447D01*
X373150Y89561D01*
X373121Y89676D01*
X373096Y89791D01*
X373075Y89908D01*
X373058Y90025D01*
X373044Y90142D01*
X373035Y90260D01*
X373029Y90378D01*
X373027Y90496D01*
X373026Y90496D02*
X373026Y91399D01*
X373028Y91532D01*
X373034Y91664D01*
X373044Y91796D01*
X373057Y91928D01*
X373075Y92060D01*
X373096Y92190D01*
X373121Y92321D01*
X373150Y92450D01*
X373183Y92578D01*
X373219Y92706D01*
X373259Y92832D01*
X373303Y92957D01*
X373351Y93081D01*
X373402Y93203D01*
X373457Y93324D01*
X373515Y93443D01*
X373577Y93561D01*
X373642Y93676D01*
X373711Y93790D01*
X373782Y93901D01*
X373858Y94010D01*
X373936Y94117D01*
X374017Y94222D01*
X374102Y94324D01*
X374189Y94424D01*
X374279Y94521D01*
X374372Y94616D01*
X374468Y94707D01*
X374566Y94796D01*
X374667Y94882D01*
X374771Y94965D01*
X374877Y95045D01*
X374985Y95121D01*
X375095Y95195D01*
X375208Y95265D01*
X375322Y95332D01*
X375439Y95395D01*
X375557Y95455D01*
X375677Y95512D01*
X375799Y95565D01*
X375922Y95614D01*
X376046Y95660D01*
X376172Y95702D01*
X376299Y95740D01*
X376427Y95775D01*
X376556Y95806D01*
X376685Y95833D01*
X376816Y95856D01*
X376947Y95876D01*
X377079Y95891D01*
X377211Y95903D01*
X377343Y95911D01*
X377476Y95915D01*
X377608Y95915D01*
X377741Y95911D01*
X377873Y95903D01*
X378005Y95891D01*
X378137Y95876D01*
X378268Y95856D01*
X378399Y95833D01*
X378528Y95806D01*
X378657Y95775D01*
X378785Y95740D01*
X378912Y95702D01*
X379038Y95660D01*
X379162Y95614D01*
X379285Y95565D01*
X379407Y95512D01*
X379527Y95455D01*
X379645Y95395D01*
X379762Y95332D01*
X379876Y95265D01*
X379989Y95195D01*
X380099Y95121D01*
X380207Y95045D01*
X380313Y94965D01*
X380417Y94882D01*
X380518Y94796D01*
X380616Y94707D01*
X380712Y94616D01*
X380805Y94521D01*
X380895Y94424D01*
X380982Y94324D01*
X381067Y94222D01*
X381148Y94117D01*
X381226Y94010D01*
X381302Y93901D01*
X381373Y93790D01*
X381442Y93676D01*
X381507Y93561D01*
X381569Y93443D01*
X381627Y93324D01*
X381682Y93203D01*
X381733Y93081D01*
X381781Y92957D01*
X381825Y92832D01*
X381865Y92706D01*
X381901Y92578D01*
X381934Y92450D01*
X381963Y92321D01*
X381988Y92190D01*
X382009Y92060D01*
X382027Y91928D01*
X382040Y91796D01*
X382050Y91664D01*
X382056Y91532D01*
X382058Y91399D01*
X382057Y91399D02*
X382057Y86884D01*
X382055Y86709D01*
X382049Y86535D01*
X382038Y86361D01*
X382023Y86187D01*
X382004Y86013D01*
X381981Y85840D01*
X381954Y85668D01*
X381922Y85496D01*
X381887Y85325D01*
X381847Y85155D01*
X381803Y84986D01*
X381755Y84818D01*
X381703Y84651D01*
X381647Y84486D01*
X381587Y84322D01*
X381524Y84159D01*
X381456Y83999D01*
X381384Y83839D01*
X381309Y83682D01*
X381229Y83526D01*
X381146Y83373D01*
X381060Y83221D01*
X380969Y83072D01*
X380875Y82925D01*
X380778Y82780D01*
X380677Y82637D01*
X380573Y82497D01*
X380465Y82360D01*
X380354Y82225D01*
X380240Y82093D01*
X380123Y81964D01*
X380002Y81837D01*
X379879Y81714D01*
X379752Y81593D01*
X379623Y81476D01*
X379491Y81362D01*
X379356Y81251D01*
X379219Y81143D01*
X379079Y81039D01*
X378936Y80938D01*
X378791Y80841D01*
X378644Y80747D01*
X378495Y80656D01*
X378343Y80570D01*
X378190Y80487D01*
X378034Y80407D01*
X377877Y80332D01*
X377717Y80260D01*
X377557Y80192D01*
X377394Y80129D01*
X377230Y80069D01*
X377065Y80013D01*
X376898Y79961D01*
X376730Y79913D01*
X376561Y79869D01*
X376391Y79829D01*
X376220Y79794D01*
X376048Y79762D01*
X375876Y79735D01*
X375703Y79712D01*
X375529Y79693D01*
X375355Y79678D01*
X375181Y79667D01*
X375007Y79661D01*
X374832Y79659D01*
D10*
X0Y800100D02*
X0Y884370D01*
X701548Y884370D02*
X701548Y800100D01*
X700898Y864870D02*
X650Y864870D01*
X26000Y868062D01*
X26000Y861678D01*
X650Y864870D01*
X26000Y866170D01*
X26000Y863570D02*
X650Y864870D01*
X26000Y867470D01*
X26000Y862270D02*
X650Y864870D01*
X675548Y868062D02*
X700898Y864870D01*
X675548Y868062D02*
X675548Y861678D01*
X700898Y864870D01*
X675548Y866170D01*
X675548Y863570D02*
X700898Y864870D01*
X675548Y867470D01*
X675548Y862270D02*
X700898Y864870D01*
D11*
X319626Y885827D02*
X319626Y887633D01*
X328657Y887633D01*
X324142Y871377D01*
X335257Y879505D02*
X335261Y879825D01*
X335272Y880144D01*
X335291Y880464D01*
X335318Y880782D01*
X335352Y881100D01*
X335394Y881417D01*
X335444Y881733D01*
X335501Y882048D01*
X335565Y882361D01*
X335637Y882673D01*
X335716Y882983D01*
X335803Y883290D01*
X335897Y883596D01*
X335998Y883899D01*
X336107Y884200D01*
X336222Y884498D01*
X336345Y884794D01*
X336475Y885086D01*
X336612Y885375D01*
X336612Y885376D02*
X336651Y885484D01*
X336694Y885591D01*
X336740Y885696D01*
X336791Y885800D01*
X336844Y885902D01*
X336901Y886002D01*
X336962Y886100D01*
X337026Y886195D01*
X337093Y886289D01*
X337164Y886380D01*
X337237Y886469D01*
X337314Y886555D01*
X337393Y886638D01*
X337475Y886719D01*
X337560Y886797D01*
X337648Y886871D01*
X337738Y886943D01*
X337830Y887011D01*
X337925Y887077D01*
X338022Y887139D01*
X338121Y887197D01*
X338223Y887253D01*
X338325Y887304D01*
X338430Y887352D01*
X338536Y887397D01*
X338644Y887438D01*
X338753Y887475D01*
X338863Y887508D01*
X338975Y887537D01*
X339087Y887563D01*
X339200Y887585D01*
X339314Y887602D01*
X339428Y887616D01*
X339543Y887626D01*
X339658Y887632D01*
X339773Y887634D01*
X339773Y887633D02*
X339888Y887631D01*
X340003Y887625D01*
X340118Y887615D01*
X340232Y887601D01*
X340346Y887584D01*
X340459Y887562D01*
X340571Y887536D01*
X340683Y887507D01*
X340793Y887474D01*
X340902Y887437D01*
X341010Y887396D01*
X341116Y887351D01*
X341221Y887303D01*
X341323Y887252D01*
X341424Y887196D01*
X341524Y887138D01*
X341621Y887076D01*
X341715Y887011D01*
X341808Y886942D01*
X341898Y886870D01*
X341986Y886796D01*
X342071Y886718D01*
X342153Y886637D01*
X342232Y886554D01*
X342309Y886468D01*
X342382Y886379D01*
X342453Y886288D01*
X342520Y886194D01*
X342584Y886099D01*
X342645Y886001D01*
X342702Y885901D01*
X342755Y885799D01*
X342806Y885695D01*
X342852Y885590D01*
X342895Y885483D01*
X342934Y885375D01*
X342933Y885375D02*
X343070Y885086D01*
X343200Y884794D01*
X343323Y884498D01*
X343438Y884200D01*
X343547Y883899D01*
X343648Y883596D01*
X343742Y883290D01*
X343829Y882983D01*
X343908Y882673D01*
X343980Y882361D01*
X344044Y882048D01*
X344101Y881733D01*
X344151Y881417D01*
X344193Y881100D01*
X344227Y880782D01*
X344254Y880464D01*
X344273Y880144D01*
X344284Y879825D01*
X344288Y879505D01*
X335258Y879505D02*
X335262Y879185D01*
X335273Y878866D01*
X335292Y878546D01*
X335319Y878228D01*
X335353Y877910D01*
X335395Y877593D01*
X335445Y877277D01*
X335502Y876962D01*
X335566Y876649D01*
X335638Y876337D01*
X335717Y876027D01*
X335804Y875720D01*
X335898Y875414D01*
X335999Y875111D01*
X336108Y874810D01*
X336223Y874512D01*
X336346Y874216D01*
X336476Y873924D01*
X336613Y873635D01*
X336612Y873635D02*
X336651Y873527D01*
X336694Y873420D01*
X336740Y873315D01*
X336791Y873211D01*
X336844Y873109D01*
X336901Y873009D01*
X336962Y872911D01*
X337026Y872816D01*
X337093Y872722D01*
X337164Y872631D01*
X337237Y872542D01*
X337314Y872456D01*
X337393Y872373D01*
X337475Y872292D01*
X337560Y872214D01*
X337648Y872140D01*
X337738Y872068D01*
X337831Y871999D01*
X337925Y871934D01*
X338022Y871872D01*
X338122Y871814D01*
X338223Y871758D01*
X338325Y871707D01*
X338430Y871659D01*
X338536Y871614D01*
X338644Y871573D01*
X338753Y871536D01*
X338863Y871503D01*
X338975Y871474D01*
X339087Y871448D01*
X339200Y871426D01*
X339314Y871409D01*
X339428Y871395D01*
X339543Y871385D01*
X339658Y871379D01*
X339773Y871377D01*
X342933Y873635D02*
X343070Y873924D01*
X343200Y874216D01*
X343323Y874512D01*
X343438Y874810D01*
X343547Y875111D01*
X343648Y875414D01*
X343742Y875720D01*
X343829Y876027D01*
X343908Y876337D01*
X343980Y876649D01*
X344044Y876962D01*
X344101Y877277D01*
X344151Y877593D01*
X344193Y877910D01*
X344227Y878228D01*
X344254Y878546D01*
X344273Y878866D01*
X344284Y879185D01*
X344288Y879505D01*
X342934Y873635D02*
X342895Y873527D01*
X342852Y873420D01*
X342806Y873315D01*
X342755Y873211D01*
X342702Y873109D01*
X342645Y873009D01*
X342584Y872911D01*
X342520Y872816D01*
X342453Y872722D01*
X342382Y872631D01*
X342309Y872542D01*
X342232Y872456D01*
X342153Y872373D01*
X342071Y872292D01*
X341986Y872214D01*
X341898Y872140D01*
X341808Y872068D01*
X341715Y871999D01*
X341621Y871934D01*
X341524Y871872D01*
X341424Y871814D01*
X341323Y871758D01*
X341220Y871707D01*
X341116Y871659D01*
X341010Y871614D01*
X340902Y871573D01*
X340793Y871536D01*
X340683Y871503D01*
X340571Y871474D01*
X340459Y871448D01*
X340346Y871426D01*
X340232Y871409D01*
X340118Y871395D01*
X340003Y871385D01*
X339888Y871379D01*
X339773Y871377D01*
X336160Y874989D02*
X343385Y884021D01*
X350263Y872280D02*
X350263Y871377D01*
X350263Y872280D02*
X351166Y872280D01*
X351166Y871377D01*
X350263Y871377D01*
X357141Y884021D02*
X361656Y887633D01*
X361656Y871377D01*
X357141Y871377D02*
X366172Y871377D01*
X372772Y871377D02*
X378191Y871377D01*
X378309Y871379D01*
X378427Y871385D01*
X378545Y871394D01*
X378662Y871408D01*
X378779Y871425D01*
X378896Y871446D01*
X379011Y871471D01*
X379126Y871500D01*
X379240Y871533D01*
X379352Y871569D01*
X379463Y871609D01*
X379573Y871652D01*
X379682Y871699D01*
X379789Y871749D01*
X379894Y871804D01*
X379997Y871861D01*
X380098Y871922D01*
X380198Y871986D01*
X380295Y872053D01*
X380390Y872123D01*
X380482Y872197D01*
X380573Y872273D01*
X380660Y872353D01*
X380745Y872435D01*
X380827Y872520D01*
X380907Y872607D01*
X380983Y872698D01*
X381057Y872790D01*
X381127Y872885D01*
X381194Y872982D01*
X381258Y873082D01*
X381319Y873183D01*
X381376Y873286D01*
X381431Y873391D01*
X381481Y873498D01*
X381528Y873607D01*
X381571Y873717D01*
X381611Y873828D01*
X381647Y873940D01*
X381680Y874054D01*
X381709Y874169D01*
X381734Y874284D01*
X381755Y874401D01*
X381772Y874518D01*
X381786Y874635D01*
X381795Y874753D01*
X381801Y874871D01*
X381803Y874989D01*
X381803Y876796D01*
X381801Y876914D01*
X381795Y877032D01*
X381786Y877150D01*
X381772Y877267D01*
X381755Y877384D01*
X381734Y877501D01*
X381709Y877616D01*
X381680Y877731D01*
X381647Y877845D01*
X381611Y877957D01*
X381571Y878068D01*
X381528Y878178D01*
X381481Y878287D01*
X381431Y878394D01*
X381376Y878499D01*
X381319Y878602D01*
X381258Y878703D01*
X381194Y878803D01*
X381127Y878900D01*
X381057Y878995D01*
X380983Y879087D01*
X380907Y879178D01*
X380827Y879265D01*
X380745Y879350D01*
X380660Y879432D01*
X380573Y879512D01*
X380482Y879588D01*
X380390Y879662D01*
X380295Y879732D01*
X380198Y879799D01*
X380098Y879863D01*
X379997Y879924D01*
X379894Y879981D01*
X379789Y880036D01*
X379682Y880086D01*
X379573Y880133D01*
X379463Y880176D01*
X379352Y880216D01*
X379240Y880252D01*
X379126Y880285D01*
X379011Y880314D01*
X378896Y880339D01*
X378779Y880360D01*
X378662Y880377D01*
X378545Y880391D01*
X378427Y880400D01*
X378309Y880406D01*
X378191Y880408D01*
X372772Y880408D01*
X372772Y887633D01*
X381803Y887633D01*
D10*
X0Y800100D02*
X-157676Y800100D01*
X-157676Y108204D02*
X0Y108204D01*
X-138176Y108854D02*
X-138176Y799450D01*
X-141368Y774100D01*
X-134984Y774100D01*
X-138176Y799450D01*
X-139476Y774100D01*
X-136876Y774100D02*
X-138176Y799450D01*
X-140776Y774100D01*
X-135576Y774100D02*
X-138176Y799450D01*
X-141368Y134204D02*
X-138176Y108854D01*
X-141368Y134204D02*
X-134984Y134204D01*
X-138176Y108854D01*
X-139476Y134204D01*
X-136876Y134204D02*
X-138176Y108854D01*
X-140776Y134204D01*
X-135576Y134204D02*
X-138176Y108854D01*
D11*
X-153714Y423004D02*
X-153714Y428423D01*
X-153712Y428541D01*
X-153706Y428659D01*
X-153697Y428777D01*
X-153683Y428894D01*
X-153666Y429011D01*
X-153645Y429128D01*
X-153620Y429243D01*
X-153591Y429358D01*
X-153558Y429472D01*
X-153522Y429584D01*
X-153482Y429695D01*
X-153439Y429805D01*
X-153392Y429914D01*
X-153342Y430021D01*
X-153287Y430126D01*
X-153230Y430229D01*
X-153169Y430330D01*
X-153105Y430430D01*
X-153038Y430527D01*
X-152968Y430622D01*
X-152894Y430714D01*
X-152818Y430805D01*
X-152738Y430892D01*
X-152656Y430977D01*
X-152571Y431059D01*
X-152484Y431139D01*
X-152393Y431215D01*
X-152301Y431289D01*
X-152206Y431359D01*
X-152109Y431426D01*
X-152009Y431490D01*
X-151908Y431551D01*
X-151805Y431608D01*
X-151700Y431663D01*
X-151593Y431713D01*
X-151484Y431760D01*
X-151374Y431803D01*
X-151263Y431843D01*
X-151151Y431879D01*
X-151037Y431912D01*
X-150922Y431941D01*
X-150807Y431966D01*
X-150690Y431987D01*
X-150573Y432004D01*
X-150456Y432018D01*
X-150338Y432027D01*
X-150220Y432033D01*
X-150102Y432035D01*
X-149199Y432035D01*
X-149199Y432036D02*
X-149066Y432034D01*
X-148934Y432028D01*
X-148802Y432018D01*
X-148670Y432005D01*
X-148538Y431987D01*
X-148408Y431966D01*
X-148277Y431941D01*
X-148148Y431912D01*
X-148020Y431879D01*
X-147892Y431843D01*
X-147766Y431803D01*
X-147641Y431759D01*
X-147517Y431711D01*
X-147395Y431660D01*
X-147274Y431605D01*
X-147155Y431547D01*
X-147037Y431485D01*
X-146922Y431420D01*
X-146808Y431351D01*
X-146697Y431280D01*
X-146588Y431204D01*
X-146481Y431126D01*
X-146376Y431045D01*
X-146274Y430960D01*
X-146174Y430873D01*
X-146077Y430783D01*
X-145982Y430690D01*
X-145891Y430594D01*
X-145802Y430496D01*
X-145716Y430395D01*
X-145633Y430291D01*
X-145553Y430185D01*
X-145477Y430077D01*
X-145403Y429967D01*
X-145333Y429854D01*
X-145266Y429740D01*
X-145203Y429623D01*
X-145143Y429505D01*
X-145086Y429385D01*
X-145033Y429263D01*
X-144984Y429140D01*
X-144938Y429016D01*
X-144896Y428890D01*
X-144858Y428763D01*
X-144823Y428635D01*
X-144792Y428506D01*
X-144765Y428377D01*
X-144742Y428246D01*
X-144722Y428115D01*
X-144707Y427983D01*
X-144695Y427851D01*
X-144687Y427719D01*
X-144683Y427586D01*
X-144683Y427454D01*
X-144687Y427321D01*
X-144695Y427189D01*
X-144707Y427057D01*
X-144722Y426925D01*
X-144742Y426794D01*
X-144765Y426663D01*
X-144792Y426534D01*
X-144823Y426405D01*
X-144858Y426277D01*
X-144896Y426150D01*
X-144938Y426024D01*
X-144984Y425900D01*
X-145033Y425777D01*
X-145086Y425655D01*
X-145143Y425535D01*
X-145203Y425417D01*
X-145266Y425300D01*
X-145333Y425186D01*
X-145403Y425073D01*
X-145477Y424963D01*
X-145553Y424855D01*
X-145633Y424749D01*
X-145716Y424645D01*
X-145802Y424544D01*
X-145891Y424446D01*
X-145982Y424350D01*
X-146077Y424257D01*
X-146174Y424167D01*
X-146274Y424080D01*
X-146376Y423995D01*
X-146481Y423914D01*
X-146588Y423836D01*
X-146697Y423760D01*
X-146808Y423689D01*
X-146922Y423620D01*
X-147037Y423555D01*
X-147155Y423493D01*
X-147274Y423435D01*
X-147395Y423380D01*
X-147517Y423329D01*
X-147641Y423281D01*
X-147766Y423237D01*
X-147892Y423197D01*
X-148020Y423161D01*
X-148148Y423128D01*
X-148277Y423099D01*
X-148408Y423074D01*
X-148538Y423053D01*
X-148670Y423035D01*
X-148802Y423022D01*
X-148934Y423012D01*
X-149066Y423006D01*
X-149199Y423004D01*
X-153714Y423004D01*
X-153889Y423006D01*
X-154063Y423012D01*
X-154237Y423023D01*
X-154411Y423038D01*
X-154585Y423057D01*
X-154758Y423080D01*
X-154930Y423107D01*
X-155102Y423139D01*
X-155273Y423174D01*
X-155443Y423214D01*
X-155612Y423258D01*
X-155780Y423306D01*
X-155947Y423358D01*
X-156112Y423414D01*
X-156276Y423474D01*
X-156439Y423537D01*
X-156599Y423605D01*
X-156759Y423677D01*
X-156916Y423752D01*
X-157072Y423832D01*
X-157225Y423915D01*
X-157377Y424001D01*
X-157526Y424092D01*
X-157673Y424186D01*
X-157818Y424283D01*
X-157961Y424384D01*
X-158101Y424488D01*
X-158238Y424596D01*
X-158373Y424707D01*
X-158505Y424821D01*
X-158634Y424938D01*
X-158761Y425059D01*
X-158884Y425182D01*
X-159005Y425309D01*
X-159122Y425438D01*
X-159236Y425570D01*
X-159347Y425705D01*
X-159455Y425842D01*
X-159559Y425982D01*
X-159660Y426125D01*
X-159757Y426270D01*
X-159851Y426417D01*
X-159942Y426566D01*
X-160028Y426718D01*
X-160111Y426871D01*
X-160191Y427027D01*
X-160266Y427184D01*
X-160338Y427344D01*
X-160406Y427504D01*
X-160469Y427667D01*
X-160529Y427831D01*
X-160585Y427996D01*
X-160637Y428163D01*
X-160685Y428331D01*
X-160729Y428500D01*
X-160769Y428670D01*
X-160804Y428841D01*
X-160836Y429013D01*
X-160863Y429185D01*
X-160886Y429358D01*
X-160905Y429532D01*
X-160920Y429706D01*
X-160931Y429880D01*
X-160937Y430054D01*
X-160939Y430229D01*
X-151908Y442248D02*
X-151908Y447666D01*
X-151908Y442248D02*
X-151910Y442130D01*
X-151916Y442012D01*
X-151925Y441894D01*
X-151939Y441777D01*
X-151956Y441660D01*
X-151977Y441543D01*
X-152002Y441428D01*
X-152031Y441313D01*
X-152064Y441199D01*
X-152100Y441087D01*
X-152140Y440976D01*
X-152183Y440866D01*
X-152230Y440757D01*
X-152280Y440650D01*
X-152335Y440545D01*
X-152392Y440442D01*
X-152453Y440341D01*
X-152517Y440241D01*
X-152584Y440144D01*
X-152654Y440049D01*
X-152728Y439957D01*
X-152804Y439866D01*
X-152884Y439779D01*
X-152966Y439694D01*
X-153051Y439612D01*
X-153138Y439532D01*
X-153229Y439456D01*
X-153321Y439382D01*
X-153416Y439312D01*
X-153513Y439245D01*
X-153613Y439181D01*
X-153714Y439120D01*
X-153817Y439063D01*
X-153922Y439008D01*
X-154029Y438958D01*
X-154138Y438911D01*
X-154248Y438868D01*
X-154359Y438828D01*
X-154471Y438792D01*
X-154585Y438759D01*
X-154700Y438730D01*
X-154815Y438705D01*
X-154932Y438684D01*
X-155049Y438667D01*
X-155166Y438653D01*
X-155284Y438644D01*
X-155402Y438638D01*
X-155520Y438636D01*
X-155520Y438635D02*
X-156423Y438635D01*
X-156556Y438637D01*
X-156688Y438643D01*
X-156820Y438653D01*
X-156952Y438666D01*
X-157084Y438684D01*
X-157214Y438705D01*
X-157345Y438730D01*
X-157474Y438759D01*
X-157602Y438792D01*
X-157730Y438828D01*
X-157856Y438868D01*
X-157981Y438912D01*
X-158105Y438960D01*
X-158227Y439011D01*
X-158348Y439066D01*
X-158467Y439124D01*
X-158585Y439186D01*
X-158700Y439251D01*
X-158814Y439320D01*
X-158925Y439391D01*
X-159034Y439467D01*
X-159141Y439545D01*
X-159246Y439626D01*
X-159348Y439711D01*
X-159448Y439798D01*
X-159545Y439888D01*
X-159640Y439981D01*
X-159731Y440077D01*
X-159820Y440175D01*
X-159906Y440276D01*
X-159989Y440380D01*
X-160069Y440486D01*
X-160145Y440594D01*
X-160219Y440704D01*
X-160289Y440817D01*
X-160356Y440931D01*
X-160419Y441048D01*
X-160479Y441166D01*
X-160536Y441286D01*
X-160589Y441408D01*
X-160638Y441531D01*
X-160684Y441655D01*
X-160726Y441781D01*
X-160764Y441908D01*
X-160799Y442036D01*
X-160830Y442165D01*
X-160857Y442294D01*
X-160880Y442425D01*
X-160900Y442556D01*
X-160915Y442688D01*
X-160927Y442820D01*
X-160935Y442952D01*
X-160939Y443085D01*
X-160939Y443217D01*
X-160935Y443350D01*
X-160927Y443482D01*
X-160915Y443614D01*
X-160900Y443746D01*
X-160880Y443877D01*
X-160857Y444008D01*
X-160830Y444137D01*
X-160799Y444266D01*
X-160764Y444394D01*
X-160726Y444521D01*
X-160684Y444647D01*
X-160638Y444771D01*
X-160589Y444894D01*
X-160536Y445016D01*
X-160479Y445136D01*
X-160419Y445254D01*
X-160356Y445371D01*
X-160289Y445485D01*
X-160219Y445598D01*
X-160145Y445708D01*
X-160069Y445816D01*
X-159989Y445922D01*
X-159906Y446026D01*
X-159820Y446127D01*
X-159731Y446225D01*
X-159640Y446321D01*
X-159545Y446414D01*
X-159448Y446504D01*
X-159348Y446591D01*
X-159246Y446676D01*
X-159141Y446757D01*
X-159034Y446835D01*
X-158925Y446911D01*
X-158814Y446982D01*
X-158700Y447051D01*
X-158585Y447116D01*
X-158467Y447178D01*
X-158348Y447236D01*
X-158227Y447291D01*
X-158105Y447342D01*
X-157981Y447390D01*
X-157856Y447434D01*
X-157730Y447474D01*
X-157602Y447510D01*
X-157474Y447543D01*
X-157345Y447572D01*
X-157214Y447597D01*
X-157084Y447618D01*
X-156952Y447636D01*
X-156820Y447649D01*
X-156688Y447659D01*
X-156556Y447665D01*
X-156423Y447667D01*
X-156423Y447666D02*
X-151908Y447666D01*
X-151733Y447664D01*
X-151559Y447658D01*
X-151385Y447647D01*
X-151211Y447632D01*
X-151037Y447613D01*
X-150864Y447590D01*
X-150692Y447563D01*
X-150520Y447531D01*
X-150349Y447496D01*
X-150179Y447456D01*
X-150010Y447412D01*
X-149842Y447364D01*
X-149675Y447312D01*
X-149510Y447256D01*
X-149346Y447196D01*
X-149183Y447133D01*
X-149023Y447065D01*
X-148863Y446993D01*
X-148706Y446918D01*
X-148550Y446838D01*
X-148397Y446755D01*
X-148245Y446669D01*
X-148096Y446578D01*
X-147949Y446484D01*
X-147804Y446387D01*
X-147661Y446286D01*
X-147521Y446182D01*
X-147384Y446074D01*
X-147249Y445963D01*
X-147117Y445849D01*
X-146988Y445732D01*
X-146861Y445611D01*
X-146738Y445488D01*
X-146617Y445361D01*
X-146500Y445232D01*
X-146386Y445100D01*
X-146275Y444965D01*
X-146167Y444828D01*
X-146063Y444688D01*
X-145962Y444545D01*
X-145865Y444400D01*
X-145771Y444253D01*
X-145680Y444104D01*
X-145594Y443952D01*
X-145511Y443799D01*
X-145431Y443643D01*
X-145356Y443486D01*
X-145284Y443326D01*
X-145216Y443166D01*
X-145153Y443003D01*
X-145093Y442839D01*
X-145037Y442674D01*
X-144985Y442507D01*
X-144937Y442339D01*
X-144893Y442170D01*
X-144853Y442000D01*
X-144818Y441829D01*
X-144786Y441657D01*
X-144759Y441485D01*
X-144736Y441312D01*
X-144717Y441138D01*
X-144702Y440964D01*
X-144691Y440790D01*
X-144685Y440616D01*
X-144683Y440441D01*
X-144683Y453641D02*
X-145586Y453641D01*
X-145586Y454544D01*
X-144683Y454544D01*
X-144683Y453641D01*
X-157327Y460519D02*
X-160939Y465034D01*
X-144683Y465034D01*
X-144683Y460519D02*
X-144683Y469550D01*
X-151908Y479763D02*
X-151908Y485181D01*
X-151908Y479763D02*
X-151910Y479645D01*
X-151916Y479527D01*
X-151925Y479409D01*
X-151939Y479292D01*
X-151956Y479175D01*
X-151977Y479058D01*
X-152002Y478943D01*
X-152031Y478828D01*
X-152064Y478714D01*
X-152100Y478602D01*
X-152140Y478491D01*
X-152183Y478381D01*
X-152230Y478272D01*
X-152280Y478165D01*
X-152335Y478060D01*
X-152392Y477957D01*
X-152453Y477856D01*
X-152517Y477756D01*
X-152584Y477659D01*
X-152654Y477564D01*
X-152728Y477472D01*
X-152804Y477381D01*
X-152884Y477294D01*
X-152966Y477209D01*
X-153051Y477127D01*
X-153138Y477047D01*
X-153229Y476971D01*
X-153321Y476897D01*
X-153416Y476827D01*
X-153513Y476760D01*
X-153613Y476696D01*
X-153714Y476635D01*
X-153817Y476578D01*
X-153922Y476523D01*
X-154029Y476473D01*
X-154138Y476426D01*
X-154248Y476383D01*
X-154359Y476343D01*
X-154471Y476307D01*
X-154585Y476274D01*
X-154700Y476245D01*
X-154815Y476220D01*
X-154932Y476199D01*
X-155049Y476182D01*
X-155166Y476168D01*
X-155284Y476159D01*
X-155402Y476153D01*
X-155520Y476151D01*
X-155520Y476150D02*
X-156423Y476150D01*
X-156556Y476152D01*
X-156688Y476158D01*
X-156820Y476168D01*
X-156952Y476181D01*
X-157084Y476199D01*
X-157214Y476220D01*
X-157345Y476245D01*
X-157474Y476274D01*
X-157602Y476307D01*
X-157730Y476343D01*
X-157856Y476383D01*
X-157981Y476427D01*
X-158105Y476475D01*
X-158227Y476526D01*
X-158348Y476581D01*
X-158467Y476639D01*
X-158585Y476701D01*
X-158700Y476766D01*
X-158814Y476835D01*
X-158925Y476906D01*
X-159034Y476982D01*
X-159141Y477060D01*
X-159246Y477141D01*
X-159348Y477226D01*
X-159448Y477313D01*
X-159545Y477403D01*
X-159640Y477496D01*
X-159731Y477592D01*
X-159820Y477690D01*
X-159906Y477791D01*
X-159989Y477895D01*
X-160069Y478001D01*
X-160145Y478109D01*
X-160219Y478219D01*
X-160289Y478332D01*
X-160356Y478446D01*
X-160419Y478563D01*
X-160479Y478681D01*
X-160536Y478801D01*
X-160589Y478923D01*
X-160638Y479046D01*
X-160684Y479170D01*
X-160726Y479296D01*
X-160764Y479423D01*
X-160799Y479551D01*
X-160830Y479680D01*
X-160857Y479809D01*
X-160880Y479940D01*
X-160900Y480071D01*
X-160915Y480203D01*
X-160927Y480335D01*
X-160935Y480467D01*
X-160939Y480600D01*
X-160939Y480732D01*
X-160935Y480865D01*
X-160927Y480997D01*
X-160915Y481129D01*
X-160900Y481261D01*
X-160880Y481392D01*
X-160857Y481523D01*
X-160830Y481652D01*
X-160799Y481781D01*
X-160764Y481909D01*
X-160726Y482036D01*
X-160684Y482162D01*
X-160638Y482286D01*
X-160589Y482409D01*
X-160536Y482531D01*
X-160479Y482651D01*
X-160419Y482769D01*
X-160356Y482886D01*
X-160289Y483000D01*
X-160219Y483113D01*
X-160145Y483223D01*
X-160069Y483331D01*
X-159989Y483437D01*
X-159906Y483541D01*
X-159820Y483642D01*
X-159731Y483740D01*
X-159640Y483836D01*
X-159545Y483929D01*
X-159448Y484019D01*
X-159348Y484106D01*
X-159246Y484191D01*
X-159141Y484272D01*
X-159034Y484350D01*
X-158925Y484426D01*
X-158814Y484497D01*
X-158700Y484566D01*
X-158585Y484631D01*
X-158467Y484693D01*
X-158348Y484751D01*
X-158227Y484806D01*
X-158105Y484857D01*
X-157981Y484905D01*
X-157856Y484949D01*
X-157730Y484989D01*
X-157602Y485025D01*
X-157474Y485058D01*
X-157345Y485087D01*
X-157214Y485112D01*
X-157084Y485133D01*
X-156952Y485151D01*
X-156820Y485164D01*
X-156688Y485174D01*
X-156556Y485180D01*
X-156423Y485182D01*
X-156423Y485181D02*
X-151908Y485181D01*
X-151733Y485179D01*
X-151559Y485173D01*
X-151385Y485162D01*
X-151211Y485147D01*
X-151037Y485128D01*
X-150864Y485105D01*
X-150692Y485078D01*
X-150520Y485046D01*
X-150349Y485011D01*
X-150179Y484971D01*
X-150010Y484927D01*
X-149842Y484879D01*
X-149675Y484827D01*
X-149510Y484771D01*
X-149346Y484711D01*
X-149183Y484648D01*
X-149023Y484580D01*
X-148863Y484508D01*
X-148706Y484433D01*
X-148550Y484353D01*
X-148397Y484270D01*
X-148245Y484184D01*
X-148096Y484093D01*
X-147949Y483999D01*
X-147804Y483902D01*
X-147661Y483801D01*
X-147521Y483697D01*
X-147384Y483589D01*
X-147249Y483478D01*
X-147117Y483364D01*
X-146988Y483247D01*
X-146861Y483126D01*
X-146738Y483003D01*
X-146617Y482876D01*
X-146500Y482747D01*
X-146386Y482615D01*
X-146275Y482480D01*
X-146167Y482343D01*
X-146063Y482203D01*
X-145962Y482060D01*
X-145865Y481915D01*
X-145771Y481768D01*
X-145680Y481619D01*
X-145594Y481467D01*
X-145511Y481314D01*
X-145431Y481158D01*
X-145356Y481001D01*
X-145284Y480841D01*
X-145216Y480681D01*
X-145153Y480518D01*
X-145093Y480354D01*
X-145037Y480189D01*
X-144985Y480022D01*
X-144937Y479854D01*
X-144893Y479685D01*
X-144853Y479515D01*
X-144818Y479344D01*
X-144786Y479172D01*
X-144759Y479000D01*
X-144736Y478827D01*
X-144717Y478653D01*
X-144702Y478479D01*
X-144691Y478305D01*
X-144685Y478131D01*
X-144683Y477956D01*
D12*
X144780Y482600D02*
X160020Y482600D01*
X160020Y457200D02*
X144780Y457200D01*
X144780Y431800D02*
X160020Y431800D01*
X160020Y406400D02*
X144780Y406400D01*
D13*
X228600Y368300D03*
X254000Y368300D03*
X279400Y368300D03*
X304800Y368300D03*
X330200Y368300D03*
X355600Y368300D03*
X381000Y368300D03*
X406400Y368300D03*
X431800Y368300D03*
X457200Y368300D03*
X482600Y368300D03*
X508000Y368300D03*
X533400Y368300D03*
X558800Y368300D03*
D14*
X228600Y190500D03*
D13*
X254000Y190500D03*
X279400Y190500D03*
X304800Y190500D03*
X330200Y190500D03*
X355600Y190500D03*
X381000Y190500D03*
X406400Y190500D03*
X431800Y190500D03*
X457200Y190500D03*
X482600Y190500D03*
X508000Y190500D03*
X533400Y190500D03*
X558800Y190500D03*
D15*
X222250Y469900D03*
X222250Y749300D03*
X552450Y749300D03*
X552450Y469900D03*
D16*
X514350Y469900D03*
X488950Y469900D03*
X463550Y469900D03*
X438150Y469900D03*
X412750Y469900D03*
X387350Y469900D03*
X361950Y469900D03*
X336550Y469900D03*
X311150Y469900D03*
X285750Y469900D03*
X260350Y469900D03*
D12*
X228600Y153924D02*
X228600Y138684D01*
X254000Y138684D02*
X254000Y153924D01*
X279400Y153924D02*
X279400Y138684D01*
X304800Y138684D02*
X304800Y153924D01*
X330200Y153924D02*
X330200Y138684D01*
X355600Y138684D02*
X355600Y153924D01*
X381000Y153924D02*
X381000Y138684D01*
X406400Y138684D02*
X406400Y153924D01*
X431800Y153924D02*
X431800Y138684D01*
X457200Y138684D02*
X457200Y153924D01*
X482600Y153924D02*
X482600Y138684D01*
X508000Y138684D02*
X508000Y153924D01*
X533400Y153924D02*
X533400Y138684D01*
X558800Y138684D02*
X558800Y153924D01*
X558800Y400050D02*
X558800Y415290D01*
X533400Y415290D02*
X533400Y400050D01*
X508000Y400050D02*
X508000Y415290D01*
X482600Y415290D02*
X482600Y400050D01*
X457200Y400050D02*
X457200Y415290D01*
X431800Y415290D02*
X431800Y400050D01*
X406400Y400050D02*
X406400Y415290D01*
X381000Y415290D02*
X381000Y400050D01*
X355600Y400050D02*
X355600Y415290D01*
X330200Y415290D02*
X330200Y400050D01*
X304800Y400050D02*
X304800Y415290D01*
X279400Y415290D02*
X279400Y400050D01*
X254000Y400050D02*
X254000Y415290D01*
X228600Y415290D02*
X228600Y400050D01*
D17*
X86106Y388366D02*
X66294Y388366D01*
X66294Y438658D02*
X86106Y438658D01*
X86106Y488442D02*
X66294Y488442D01*
X66294Y538734D02*
X86106Y538734D01*
X86106Y164846D02*
X66294Y164846D01*
X66294Y215138D02*
X86106Y215138D01*
X86106Y264922D02*
X66294Y264922D01*
X66294Y315214D02*
X86106Y315214D01*
X618744Y469646D02*
X638556Y469646D01*
X638556Y419354D02*
X618744Y419354D01*
D15*
X50800Y755142D03*
X650748Y755650D03*
X164338Y149352D03*
X651002Y155448D03*
D12*
X330200Y741680D02*
X330200Y756920D01*
X355600Y756920D02*
X355600Y741680D01*
X381000Y741680D02*
X381000Y756920D01*
X406400Y756920D02*
X406400Y741680D01*
X431800Y741680D02*
X431800Y756920D01*
D18*
X641350Y552450D03*
D19*
X641350Y527050D03*
D18*
X152400Y546100D03*
D19*
X152400Y520700D03*
D20*
X133350Y330200D03*
D21*
X133350Y273050D01*
D20*
X133350Y215900D03*
D21*
X133350Y273050D01*
D20*
X133350Y273050D03*
X450850Y304800D03*
D21*
X450850Y247650D01*
D20*
X450850Y247650D03*
X215900Y321310D03*
D21*
X241300Y295910D01*
X241300Y254000D01*
D20*
X241300Y254000D03*
X279400Y241300D03*
D21*
X279400Y330200D01*
D20*
X279400Y330200D03*
M02*
