G04 EAGLE Gerber RS-274X export*
G75*
%MOMM*%
%FSLAX34Y34*%
%LPD*%
%INSoldermask Top*%
%IPPOS*%
%AMOC8*
5,1,8,0,0,1.08239X$1,22.5*%
G01*
%ADD10C,1.727200*%
%ADD11C,2.203200*%
%ADD12R,2.203200X2.203200*%
%ADD13C,3.719200*%
%ADD14C,2.133600*%
%ADD15C,2.184400*%
%ADD16P,1.951982X8X112.500000*%
%ADD17C,1.803400*%
%ADD18C,1.219200*%


D10*
X144780Y482600D02*
X160020Y482600D01*
X160020Y457200D02*
X144780Y457200D01*
X144780Y431800D02*
X160020Y431800D01*
X160020Y406400D02*
X144780Y406400D01*
D11*
X228600Y368300D03*
X254000Y368300D03*
X279400Y368300D03*
X304800Y368300D03*
X330200Y368300D03*
X355600Y368300D03*
X381000Y368300D03*
X406400Y368300D03*
X431800Y368300D03*
X457200Y368300D03*
X482600Y368300D03*
X508000Y368300D03*
X533400Y368300D03*
X558800Y368300D03*
D12*
X228600Y190500D03*
D11*
X254000Y190500D03*
X279400Y190500D03*
X304800Y190500D03*
X330200Y190500D03*
X355600Y190500D03*
X381000Y190500D03*
X406400Y190500D03*
X431800Y190500D03*
X457200Y190500D03*
X482600Y190500D03*
X508000Y190500D03*
X533400Y190500D03*
X558800Y190500D03*
D13*
X222250Y469900D03*
X222250Y749300D03*
X552450Y749300D03*
X552450Y469900D03*
D14*
X514350Y469900D03*
X488950Y469900D03*
X463550Y469900D03*
X438150Y469900D03*
X412750Y469900D03*
X387350Y469900D03*
X361950Y469900D03*
X336550Y469900D03*
X311150Y469900D03*
X285750Y469900D03*
X260350Y469900D03*
D10*
X228600Y153924D02*
X228600Y138684D01*
X254000Y138684D02*
X254000Y153924D01*
X279400Y153924D02*
X279400Y138684D01*
X304800Y138684D02*
X304800Y153924D01*
X330200Y153924D02*
X330200Y138684D01*
X355600Y138684D02*
X355600Y153924D01*
X381000Y153924D02*
X381000Y138684D01*
X406400Y138684D02*
X406400Y153924D01*
X431800Y153924D02*
X431800Y138684D01*
X457200Y138684D02*
X457200Y153924D01*
X482600Y153924D02*
X482600Y138684D01*
X508000Y138684D02*
X508000Y153924D01*
X533400Y153924D02*
X533400Y138684D01*
X558800Y138684D02*
X558800Y153924D01*
X558800Y400050D02*
X558800Y415290D01*
X533400Y415290D02*
X533400Y400050D01*
X508000Y400050D02*
X508000Y415290D01*
X482600Y415290D02*
X482600Y400050D01*
X457200Y400050D02*
X457200Y415290D01*
X431800Y415290D02*
X431800Y400050D01*
X406400Y400050D02*
X406400Y415290D01*
X381000Y415290D02*
X381000Y400050D01*
X355600Y400050D02*
X355600Y415290D01*
X330200Y415290D02*
X330200Y400050D01*
X304800Y400050D02*
X304800Y415290D01*
X279400Y415290D02*
X279400Y400050D01*
X254000Y400050D02*
X254000Y415290D01*
X228600Y415290D02*
X228600Y400050D01*
D15*
X86106Y388366D02*
X66294Y388366D01*
X66294Y438658D02*
X86106Y438658D01*
X86106Y488442D02*
X66294Y488442D01*
X66294Y538734D02*
X86106Y538734D01*
X86106Y164846D02*
X66294Y164846D01*
X66294Y215138D02*
X86106Y215138D01*
X86106Y264922D02*
X66294Y264922D01*
X66294Y315214D02*
X86106Y315214D01*
X618744Y469646D02*
X638556Y469646D01*
X638556Y419354D02*
X618744Y419354D01*
D13*
X50800Y755142D03*
X650748Y755650D03*
X164338Y149352D03*
X651002Y155448D03*
D10*
X330200Y741680D02*
X330200Y756920D01*
X355600Y756920D02*
X355600Y741680D01*
X381000Y741680D02*
X381000Y756920D01*
X406400Y756920D02*
X406400Y741680D01*
X431800Y741680D02*
X431800Y756920D01*
D16*
X641350Y552450D03*
D17*
X641350Y527050D03*
D16*
X152400Y546100D03*
D17*
X152400Y520700D03*
D18*
X133350Y330200D03*
X133350Y215900D03*
X133350Y273050D03*
X450850Y304800D03*
X450850Y247650D03*
X215900Y321310D03*
X241300Y254000D03*
X279400Y241300D03*
X279400Y330200D03*
M02*
