M48
;GenerationSoftware,Autodesk,EAGLE,9.6.2*%
;CreationDate,2023-08-09T08:11:45Z*%
FMAT,2
ICI,OFF
METRIC,TZ,000.000
T7C0.610
T6C0.813
T5C1.000
T4C1.016
T3C1.020
T2C1.321
T1C2.500
%
G90
M71
T1
X16434Y14935
X65100Y15545
X65075Y75565
X5080Y75514
X22225Y46990
X22225Y74930
X55245Y74930
X55245Y46990
T2
X7620Y21514
X7620Y16485
X7620Y53873
X7620Y43866
X62865Y46965
X7620Y48844
X62865Y41935
X7620Y38837
X7620Y31521
X7620Y26492
T3
X35560Y36830
X38100Y36830
X40640Y36830
X43180Y36830
X45720Y36830
X48260Y36830
X50800Y36830
X53340Y36830
X22860Y36830
X22860Y19050
X25400Y19050
X27940Y19050
X30480Y19050
X33020Y19050
X35560Y19050
X38100Y19050
X40640Y19050
X55880Y36830
X45720Y19050
X48260Y19050
X50800Y19050
X53340Y19050
X43180Y19050
X25400Y36830
X27940Y36830
X30480Y36830
X33020Y36830
X55880Y19050
T4
X38100Y74930
X40640Y74930
X43180Y74930
X15240Y48260
X15240Y45720
X15240Y43180
X15240Y40640
X48260Y14630
X22860Y14630
X25400Y14630
X27940Y14630
X30480Y14630
X33020Y14630
X35560Y14630
X38100Y14630
X40640Y14630
X43180Y14630
X45720Y14630
X50800Y14630
X53340Y14630
X55880Y14630
X55880Y40767
X53340Y40767
X50800Y40767
X48260Y40767
X45720Y40767
X43180Y40767
X40640Y40767
X38100Y40767
X35560Y40767
X33020Y40767
X27940Y40767
X25400Y40767
X22860Y40767
X30480Y40767
X33020Y74930
X35560Y74930
T5
X41275Y46990
X43815Y46990
X46355Y46990
X48895Y46990
X51435Y46990
X33655Y46990
X26035Y46990
X31115Y46990
X28575Y46990
X36195Y46990
X38735Y46990
T6
X64135Y55245
X64135Y52705
X15240Y54610
X15240Y52070
T7
X13335Y21590
X13335Y27305
X45085Y30480
X13335Y33020
X27940Y33020
X27940Y24130
X24130Y25400
X21590Y32131
X45085Y24765
M30